<?xml version="1.0" encoding="UTF-8" standalone="no"?>
<!DOCTYPE svg PUBLIC "-//W3C//DTD SVG 1.1//EN" "http://www.w3.org/Graphics/SVG/1.1/DTD/svg11.dtd">
<svg version="1.1" xmlns="http://www.w3.org/2000/svg" xmlns:xlink="http://www.w3.org/1999/xlink" preserveAspectRatio="xMidYMid meet" viewBox="0 0 2048 1536" width="2048" height="1536"><defs><path d="M1742.21 1220.72C1751.5 1258.96 1762.23 1299.29 1753.97 1342.13C1743.87 1394.52 1707.67 1435.82 1671.12 1459.45C1604.47 1502.57 1528.58 1501.69 1473.63 1457.18C1426.06 1418.71 1394.92 1351.41 1346.4 1315.02C1265.11 1254.13 1153.15 1291.73 1055.75 1349.44C986.84 1390.24 910.99 1441.88 847.63 1413.11C803.04 1392.86 775.47 1335.31 762.69 1272.6C756.54 1242.33 752.89 1209.25 738.59 1186.21C730.08 1172.52 718.35 1163.38 706.18 1155.91C595.07 1087.71 444.12 1145.77 337.04 1068.47C264.71 1016.26 223.9 907.98 210.86 792.06C197.81 676.14 209.36 551.96 223.75 429.69C234.04 342.81 247.87 249.77 292.76 178.93C340.23 104 414.75 70.32 479.35 77.03C543.95 83.74 599.89 125.48 648.05 176.45C708.25 240.15 762.4 321.62 840.56 341.91C893.73 355.73 952.07 339.21 1008.71 329.77C1103.41 313.98 1196.71 317.99 1289.3 323.36C1377.96 328.51 1467.17 335.05 1549.68 366.63C1608.07 388.98 1652.76 435.84 1707.2 466.21C1742.69 485.99 1782.81 488.35 1815.86 514.81C1856.55 547.31 1891.62 607.73 1874.95 684.23C1859.09 756.98 1802.13 798.49 1767.77 855.06C1703.02 961.69 1714.47 1106.52 1742.21 1220.72Z" id="g5Uw5tR0Je"></path><path d="M558.86 529.34C558.86 529.34 279.45 466.44 634.97 98.4C634.97 98.4 788.21 244.65 732 426.44C709.4 499.53 636.67 544.65 563 530.2C562.17 530.03 559.68 529.51 558.86 529.34Z" id="e2p9SH12Zz"></path><path d="M558.86 529.34C552.72 527.96 285.41 460.22 634.97 98.4C634.97 98.4 788.21 244.65 732 426.44C709.4 499.53 636.67 544.65 563 530.2C562.17 530.03 559.68 529.51 558.86 529.34Z" id="ciXwwzz88"></path><path d="M562.56 531.44C562.56 531.44 710.14 307.59 635 98.42" id="e1xbanWzAL"></path><path d="M1708.3 746.71C1708.3 746.71 1660.14 551.48 1733.12 412.48C1763.77 354.15 1775.94 287.69 1765.7 222.51C1760.79 191.59 1753.07 161.19 1742.65 131.69" id="ad11iWYWo"></path><path d="M1741.72 134.12C1741.72 134.12 1702.15 63.78 1703.15 40.14C1704.63 16.54 1724.83 -1.4 1748.27 0.09C1771.06 1.53 1788.66 20.83 1788.13 43.82C1787.12 67.45 1751 116.06 1741.72 134.12Z" id="aqokGMczt"></path><path d="M1765.1 228.13C1765.1 228.13 1769.84 147.42 1783.44 128.13C1796.62 108.55 1823.07 103.43 1842.51 116.7C1861.96 129.97 1867.05 156.6 1853.87 176.18C1853.52 176.7 1853.16 177.21 1852.79 177.71C1839.21 197 1782.64 218.04 1765.1 228.13Z" id="acIhO7IsS"></path><path d="M1739.23 400.17C1739.23 400.17 1783.8 332.92 1805.2 323.17C1826.79 313.85 1851.8 323.91 1861.06 345.65C1870.07 366.8 1860.87 391.34 1840.22 401.22C1818.82 410.95 1759.43 400.38 1739.23 400.17Z" id="h1pkUbk6eQ"></path><path d="M1693.17 584.31C1693.17 584.31 1725.81 510.45 1745.27 497.2C1764.97 484.31 1791.32 489.95 1804.11 509.78C1816.59 529.12 1811.62 554.93 1792.88 568.17C1773.41 581.4 1713.11 581.08 1693.17 584.31Z" id="i2a1oJ3SU"></path><path d="M1769.52 266.56C1769.52 266.56 1753.65 187.31 1737.52 170.12C1721.07 153.23 1694.14 152.97 1677.37 169.54C1661.05 185.66 1660.3 211.9 1675.7 228.93C1691.82 246.14 1750.76 259.03 1769.52 266.56Z" id="b6Ei92VH8"></path><path d="M1723.43 432.46C1723.43 432.46 1684.83 361.6 1664.3 350.07C1643.53 339.03 1617.8 347.03 1606.82 367.94C1596.22 388.15 1603.25 413.18 1622.79 424.81C1643.3 436.28 1703.31 430.93 1723.43 432.46Z" id="b7Yca1ZfKA"></path><path d="M1695.29 647.04C1695.29 647.04 1669.05 570.56 1650.78 555.76C1632.22 541.27 1605.5 544.66 1591.1 563.35C1577.1 581.52 1579.85 607.57 1597.33 622.38C1615.59 637.23 1675.7 642.11 1695.29 647.04Z" id="c1eG7rxXM5"></path><path d="M1741.72 134.12C1741.72 134.12 1702.15 63.78 1703.15 40.14C1704.63 16.54 1724.83 -1.4 1748.27 0.09C1771.06 1.53 1788.66 20.83 1788.13 43.82C1787.12 67.45 1751 116.06 1741.72 134.12Z" id="a1ABHHmmMZ"></path><path d="M1765.1 228.13C1765.1 228.13 1769.84 147.42 1783.44 128.13C1796.62 108.55 1823.07 103.43 1842.51 116.7C1861.96 129.97 1867.05 156.6 1853.87 176.18C1853.52 176.7 1853.16 177.21 1852.79 177.71C1839.21 197 1782.64 218.04 1765.1 228.13Z" id="bligx0FTL"></path><path d="M1739.23 400.17C1739.23 400.17 1783.8 332.92 1805.2 323.17C1826.79 313.85 1851.8 323.91 1861.06 345.65C1870.07 366.8 1860.87 391.34 1840.22 401.22C1818.82 410.95 1759.43 400.38 1739.23 400.17Z" id="aa86MXlFQ"></path><path d="M1693.17 584.31C1693.17 584.31 1725.81 510.45 1745.27 497.2C1764.97 484.31 1791.32 489.95 1804.11 509.78C1816.59 529.12 1811.62 554.93 1792.88 568.17C1773.41 581.4 1713.11 581.08 1693.17 584.31Z" id="i6HPZ6sxdE"></path><path d="M1769.52 266.56C1769.52 266.56 1753.65 187.31 1737.52 170.12C1721.07 153.23 1694.14 152.97 1677.37 169.54C1661.05 185.66 1660.3 211.9 1675.7 228.93C1691.82 246.14 1750.76 259.03 1769.52 266.56Z" id="adggLaUXq"></path><path d="M1723.43 432.46C1723.43 432.46 1684.83 361.6 1664.3 350.07C1643.53 339.03 1617.8 347.03 1606.82 367.94C1596.22 388.15 1603.25 413.18 1622.79 424.81C1643.3 436.28 1703.31 430.93 1723.43 432.46Z" id="a4ZXOPmZJR"></path><path d="M1695.29 647.04C1695.29 647.04 1669.05 570.56 1650.78 555.76C1632.22 541.27 1605.5 544.66 1591.1 563.35C1577.1 581.52 1579.85 607.57 1597.33 622.38C1615.59 637.23 1675.7 642.11 1695.29 647.04Z" id="a8phnkjhmz"></path><path d="M1532 620.62C1532 620.62 1733.97 450.2 1778.86 364.26C1778.86 364.26 1880.97 204.29 1880.97 204.29" id="c2sq2Z2QEN"></path><path d="M1767.13 376.52C1767.13 376.52 1787.71 469.32 1854.48 396.36C1837.01 392.39 1775.86 378.5 1767.13 376.52Z" id="b9XyhON61"></path><path d="M1771.19 377.41C1771.19 377.41 1672.94 384.6 1720.91 301.59C1730.97 316.75 1766.16 369.83 1771.19 377.41Z" id="b1wAaedVyn"></path><path d="M1808.98 310.97C1808.98 310.97 1859.17 387.82 1888.85 325.08C1872.88 322.26 1816.97 312.38 1808.98 310.97Z" id="b2fF32Blfp"></path><path d="M1810.16 309.23C1810.16 309.23 1740.37 315.85 1770.74 257.34C1778.62 267.72 1806.22 304.04 1810.16 309.23Z" id="b9uyHLE32"></path><path d="M1926.26 256.81C1926.26 256.81 1916.12 301.7 1890.18 295.45C1864.24 289.2 1850.3 247 1850.3 247C1865.49 248.96 1918.38 250.27 1926.26 256.81Z" id="f4AyekGTSv"></path><path d="M1849.85 246.46C1849.85 246.46 1807.52 267.06 1799.16 230.31C1790.81 193.56 1823.11 185.8 1823.11 185.8C1828.46 197.93 1850.89 236.77 1849.85 246.46Z" id="a2qprCcDjp"></path><path d="M1878 207.31C1874.84 217.37 1880.37 228.12 1890.37 231.3C1900.37 234.49 1911.04 228.92 1914.21 218.85C1917.37 208.78 1911.84 198.04 1901.84 194.85C1891.84 191.66 1881.17 197.24 1878 207.31Z" id="gfQPpBWW0"></path><path d="M1848.29 187.81C1845.12 197.87 1850.66 208.62 1860.66 211.8C1870.66 214.99 1881.33 209.42 1884.49 199.35C1887.66 189.28 1882.12 178.54 1872.12 175.35C1862.12 172.16 1851.45 177.74 1848.29 187.81Z" id="e3gIlZHU4"></path><path d="M624.48 664.36C624.48 664.36 706.14 603.18 603.6 389.04C603.6 389.04 466.87 218.87 603.6 58.27C603.6 58.27 305.46 65.92 311.16 345.06C316.86 624.21 460.23 664.36 460.23 664.36C493.08 664.36 591.63 664.36 624.48 664.36Z" id="c1OiyydPYs"></path><path d="M548.22 664.36C548.22 664.36 527.66 517.14 472.59 427.28C461.71 409.1 453.89 389.25 449.44 368.5C431.04 287 457.28 201.76 516.74 143.43C522.53 137.75 551.49 109.34 603.61 58.21" id="d21O8Fh94A"></path><path d="M785.87 234.88C785.87 234.88 735.86 303.71 744.99 326.88C744.99 326.88 786.35 257.63 820.02 256.66C853.68 255.68 831.56 214.53 794.53 172.89C792.8 185.29 813.29 197.59 785.87 234.88Z" id="n4hIAlyDBi"></path><path d="M798.33 180.64C831.18 219.49 848.67 255.76 817.11 256.67C787.7 257.52 752.41 310.48 743.96 323.84C744.24 324.87 744.58 325.89 744.97 326.88C744.97 326.88 786.33 257.63 820 256.66C853.67 255.68 831.56 214.53 794.53 172.89C796.16 175.28 797.43 177.89 798.33 180.64Z" id="g3liCh486N"></path><path d="M827.23 220.1C826.04 220.1 825.07 213.04 825.07 204.36C825.07 195.68 826.28 199.76 827.48 199.76C828.68 199.76 829.4 195.68 829.4 204.36C829.4 213.06 828.43 220.1 827.23 220.1Z" id="civz092VI"></path><path d="M826.61 220.37C826.04 219.31 831.71 215.09 839.29 210.92C846.87 206.75 843.89 209.79 844.46 210.92C845.03 212.05 848.94 210.58 841.36 214.74C833.76 218.91 827.18 221.42 826.61 220.37Z" id="a2ZcyEVGHE"></path><path d="M704.14 234.88C704.14 234.88 754.16 303.71 745.03 326.88C745.03 326.88 703.67 257.63 670 256.66C636.33 255.68 658.42 214.53 695.48 172.89C697.22 185.29 676.72 197.59 704.14 234.88Z" id="bddaED79v"></path><path d="M691.69 180.64C658.84 219.49 641.35 255.76 672.91 256.67C702.32 257.52 737.6 310.48 746.05 323.84C745.77 324.87 745.44 325.89 745.05 326.88C745.05 326.88 703.63 257.61 669.96 256.67C669.96 256.67 658.42 214.53 695.48 172.89C693.86 175.28 692.58 177.89 691.69 180.64Z" id="b1fFthLkeI"></path><path d="M662.75 220.1C663.94 220.1 664.91 213.04 664.91 204.36C664.91 195.68 663.7 199.76 662.5 199.76C661.3 199.76 660.58 195.68 660.58 204.36C660.58 213.06 661.55 220.1 662.75 220.1Z" id="a6eMnbahx8"></path><path d="M663.37 220.37C663.94 219.31 658.27 215.09 650.69 210.92C643.11 206.75 646.09 209.79 645.52 210.92C644.95 212.05 641.04 210.58 648.62 214.74C656.21 218.91 662.8 221.42 663.37 220.37Z" id="b6gccpwi6"></path><path d="M1881.63 496.85C1844.55 496.85 1823.94 496.85 1819.82 496.85C1817.36 468.69 1815.7 441.41 1815.08 415.71C1815.08 415.71 1591 465.08 1412.31 322.25C1233.62 179.43 1023.54 334.61 1023.54 334.61C1023.49 334.57 1023.22 334.37 1022.73 334.01L1022.73 333.73C1022.73 333.94 1022.73 334.07 1022.73 334.09C1008.14 323.69 806.89 184.82 634.83 322.37C456.22 465.19 232.07 415.83 232.07 415.83C231.44 441.85 229.77 469.36 227.25 497.79C223.42 497.79 204.31 497.79 169.9 497.79C67.96 941.04 11.33 1187.29 0 1236.54C0 1236.54 690.64 1262.58 932.66 1238.56C941.34 1257.03 978.75 1270.91 1023.56 1270.91C1073.92 1270.91 1114.88 1253.38 1116.31 1231.53C1304.7 1245.96 1710.08 1269.04 2048 1233.88C2025.82 1135.61 1970.36 889.93 1881.63 496.85Z" id="b6nmNoOP8"></path><linearGradient id="gradienta71ogWIsj9" gradientUnits="userSpaceOnUse" x1="1024" y1="1270.89" x2="1024" y2="261.87"><stop style="stop-color: #808080;stop-opacity: 0.25" offset="0%"></stop><stop style="stop-color: #808080;stop-opacity: 0.12" offset="54%"></stop><stop style="stop-color: #808080;stop-opacity: 0.1" offset="100%"></stop></linearGradient><path d="M187.69 503.34C87.89 937.36 32.45 1178.48 21.36 1226.71C21.36 1226.71 936.97 1261.24 1010.71 1212.9C1010.71 1212.9 1579.12 1270.74 2026.64 1224.13C2015.78 1176.02 1961.48 935.47 1863.75 502.5L187.69 503.34Z" id="f3dwq12Voz"></path><path d="M244.28 528.33C151.24 932.97 99.55 1157.77 89.21 1202.73C89.21 1202.73 942.86 1234.93 1011.6 1189.86C1011.6 1189.86 1541.54 1243.78 1958.77 1200.32C1948.64 1155.47 1898 931.2 1806.85 527.52L244.28 528.33Z" id="cdIlJA83j"></path><path d="M1404.22 331.57C1229.33 191.72 1023.56 343.65 1023.56 343.65C1023.56 343.65 817.81 191.72 642.92 331.57C468.03 471.41 248.55 423.07 248.55 423.07C241.64 704.47 111.39 1160.25 111.39 1160.25C111.39 1160.25 351.44 1225.85 668.65 1092.93C985.87 960.01 1023.58 1139.54 1023.58 1139.54C1023.58 1139.54 1061.3 959.99 1378.51 1092.93C1695.73 1225.87 1935.77 1160.25 1935.77 1160.25C1935.77 1160.25 1805.45 704.47 1798.59 423.07C1719.72 404.77 1579.12 471.41 1404.22 331.57Z" id="amgYAnM09"></path><path d="M600.06 1144.76C600.06 1144.76 889.84 1079.16 1023.53 1175.83C1023.53 1175.83 1152.12 1058.44 1450.46 1149.94" id="k1v55ncVc"></path><path d="M1114.45 1220.67C1114.45 1242.6 1073.76 1260.38 1023.56 1260.38C973.37 1260.38 932.68 1242.6 932.68 1220.67C932.68 1198.73 973.37 1180.95 1023.56 1180.95C1073.76 1180.95 1114.45 1198.73 1114.45 1220.67Z" id="a16uC1crop"></path><path d="M1022.71 342.79C1022.71 342.79 1087.86 675.99 1024.42 1145.56" id="cCyX3u8uA"></path><path d="M311.33 527.52C311.33 527.52 447.81 559.45 565.94 527.52C565.94 527.52 900.97 391.14 972.31 527.52" id="gMUyGG1Sp"></path><path d="M311.33 586.22C311.33 586.22 447.81 618.15 565.94 586.22C565.94 586.22 939.86 556.01 972.31 586.22" id="g2goyMp0Vy"></path><path d="M311.33 689.71C311.33 689.71 447.81 721.64 565.94 689.71C565.94 689.71 900.97 553.33 972.31 689.71" id="ar2D2VXyh"></path><path d="M311.33 748.49C311.33 748.49 447.81 780.42 565.94 748.49C565.94 748.49 939.86 718.28 972.31 748.49" id="eDNgttvr6"></path><path d="M1735.82 527.52C1735.82 527.52 1599.34 559.45 1481.21 527.52C1481.21 527.52 1146.18 391.14 1074.83 527.52" id="j4dQ3HO1yN"></path><path d="M1735.82 586.22C1735.82 586.22 1599.34 618.15 1481.21 586.22C1481.21 586.22 1107.29 556.01 1074.83 586.22" id="f1l72Vr8fO"></path><path d="M1735.82 689.71C1735.82 689.71 1599.34 721.64 1481.21 689.71C1481.21 689.71 1146.18 553.33 1074.83 689.71" id="auOxdus8t"></path><path d="M1735.82 748.49C1735.82 748.49 1599.34 780.42 1481.21 748.49C1481.21 748.49 1107.29 718.28 1074.83 748.49" id="e2fwubSnSr"></path><path d="M1751.35 1354.16C1753.11 1347.26 1749.19 1340.19 1742.44 1338.06C1734.26 1335.5 1725.52 1340.14 1718.88 1344.85C1712.23 1349.55 1704.65 1354.92 1695.98 1353.93C1704.96 1347.39 1709.27 1336.72 1706.76 1327.16C1706.34 1325.08 1705.29 1323.18 1703.76 1321.71C1699.22 1317.72 1690.98 1319.44 1685.55 1322.57C1668.25 1332.57 1663.43 1351.87 1663.33 1369.24C1661.59 1362.97 1663.07 1356.45 1663.01 1350.01C1662.95 1343.57 1660.83 1336.45 1654.22 1332.99C1649.99 1331.16 1645.41 1330.27 1640.81 1330.41C1633.05 1330.18 1624.37 1330.81 1619.07 1335.5C1612.48 1341.23 1614.19 1351.04 1619.92 1357.43C1625.66 1363.81 1634.39 1367.83 1642.43 1372.25C1648.56 1375.61 1654.75 1379.53 1658.51 1384.85C1658.99 1385.55 1659.39 1386.31 1659.71 1387.1C1664.58 1387.1 1703.58 1387.1 1708.45 1387.1C1719.16 1382.67 1729.28 1376.91 1738.59 1369.97C1744.28 1365.59 1749.7 1360.41 1751.35 1354.16Z" id="hoxQuh0z1"></path><path d="M1401.55 681.47C1401.55 681.47 1402.02 684.23 1402.82 689.12C1402.4 689.89 1401.98 690.65 1401.55 691.4C1385.97 717.78 1383.58 755.79 1385.04 787C1386.41 812.16 1390.79 837.07 1398.09 861.18C1407 892.51 1411.47 924.95 1411.38 957.54C1417.54 964.25 1424.95 969.68 1433.18 973.53C1433.6 974.81 1434.04 976.11 1434.42 977.35C1441.59 1001.43 1446.45 1026.15 1448.91 1051.17C1449.4 1057.42 1453.31 1107.37 1453.8 1113.62C1453.8 1113.62 1491.35 1254.95 1502.76 1281.24C1510.89 1299.94 1509.1 1338.6 1507.39 1359.32C1502.51 1373.26 1496.57 1386.55 1491.33 1388C1481.83 1390.72 1472.34 1413.74 1486.16 1425.3C1486.16 1425.3 1486.16 1425.3 1486.16 1425.3C1487.2 1426.17 1488.31 1426.94 1489.49 1427.6C1489.52 1427.62 1489.71 1427.72 1490.04 1427.9L1491.04 1428.42L1492.52 1429.09L1493.28 1429.38L1494.86 1429.91C1495.27 1430.04 1495.5 1430.11 1495.54 1430.12C1496.28 1430.33 1497.04 1430.54 1497.86 1430.73C1507.49 1432.64 1517.47 1431.05 1526.04 1426.24C1536.45 1424.67 1545.69 1419.05 1552.63 1413.37C1552.61 1414.04 1552.55 1417.36 1552.44 1423.33L1563.83 1423.33C1563.51 1411.39 1563.33 1404.76 1563.3 1403.43C1565.35 1401.12 1566.49 1399.61 1566.49 1399.61C1566.49 1399.61 1566.83 1387.58 1568.14 1373.58C1568.08 1376.58 1567.81 1391.55 1567.3 1418.5L1578.7 1418.5C1576.85 1368.77 1575.83 1341.14 1575.62 1335.61C1576.2 1334.37 1576.96 1333.23 1577.88 1332.23C1587.38 1322.67 1570.97 1291.83 1562.48 1286.69C1566.28 1266.42 1580.77 1237.15 1597.48 1181.03C1621.96 1098.82 1590.95 1018.34 1590.95 1018.34C1590.95 1012.03 1590.95 961.56 1590.95 955.25C1599.17 951.69 1604.01 949.26 1604.01 949.26C1604.01 949.26 1592.62 881.89 1604.01 834.24C1611.4 803.44 1613.32 776.08 1607.14 749.9C1615.35 721.45 1621.97 699.48 1621.97 699.48C1623.11 687.65 1632.23 593 1633.37 581.17C1636.27 563.41 1638.23 548.21 1639.48 535.29C1639.69 533.68 1639.84 532.05 1639.92 530.45C1642.01 506.38 1641.55 490.3 1640.18 479.78C1640.85 474.96 1641.08 470.09 1640.87 465.23C1641.13 462.74 1641.23 460.23 1641.17 457.72C1642.81 455.8 1644.4 453.89 1645.92 451.98C1649.96 446.93 1653.4 441.41 1656.16 435.54C1668.71 411.7 1669.07 382.58 1651.54 361.56C1640.75 348.62 1637.39 334.68 1628.07 320.9C1619.54 308.28 1617.93 293.15 1615.88 278.62C1613.34 260.56 1609.85 242.65 1605.43 224.95C1604.12 219.75 1596.95 216.56 1593.38 212.24C1586.48 203.88 1566.35 204.17 1554.75 202.32C1535.27 199.2 1514.17 196.29 1496.44 204C1484.09 209.37 1475.22 219.14 1465.58 227.77C1455.19 237.04 1433.92 241.51 1430.62 252.62C1427.68 256.87 1427.52 262.18 1432.52 269.29C1437.34 276.14 1444.94 281.03 1452.02 286.16C1452.93 286.81 1453.79 287.49 1454.68 288.07C1449.75 318.36 1465.05 348.34 1492.37 361.95C1492.18 363.19 1491.97 364.41 1491.75 365.62C1489.66 376.34 1486.79 386.89 1483.16 397.18C1481.05 403.53 1456.67 414.62 1439.49 421.73C1437.5 419.68 1435.13 418.04 1432.52 416.9C1419.45 413.61 1375.4 438.25 1372.13 446.47C1371.22 448.77 1373.61 455.12 1377.51 463.11C1377.76 466.75 1378.35 470.36 1379.27 473.89C1378.3 490.72 1380.05 517.87 1388.46 561.52C1391.08 585.51 1398.93 657.48 1401.55 681.47ZM1582.89 696.39C1564.76 659.47 1553.99 599.78 1579.97 564.17C1582.29 564.42 1584.6 564.65 1586.92 564.81C1588.46 613.26 1587.57 692.91 1587.57 692.91C1587.57 692.91 1586.54 695.58 1584.79 699.96C1584.19 698.8 1583.56 697.61 1582.89 696.39ZM1520.06 981.37C1523.74 1000.01 1528.07 1021.67 1532.12 1041.36C1536.93 1064.29 1536.6 1088.02 1531.17 1110.8C1530.14 1107.72 1525.03 1092.27 1515.82 1064.46L1512.25 982.91C1512.12 980.91 1512.04 979.79 1512.03 979.57C1514.49 979.15 1516.94 978.69 1519.37 978.21C1519.74 979.89 1519.97 980.94 1520.06 981.37Z" id="d2C9bf1cw6"></path><linearGradient id="gradientbh25rDLHA" gradientUnits="userSpaceOnUse" x1="1518.56" y1="1431.69" x2="1518.56" y2="199.16"><stop style="stop-color: #808080;stop-opacity: 0.25" offset="0%"></stop><stop style="stop-color: #808080;stop-opacity: 0.12" offset="54%"></stop><stop style="stop-color: #808080;stop-opacity: 0.1" offset="100%"></stop></linearGradient><path d="M1530.98 1106.16C1530.02 1110.42 1528.75 1114.61 1527.18 1118.68C1527.47 1130.5 1528.91 1189.58 1531.51 1295.92C1531.81 1307.98 1531.97 1314.68 1532 1316.02C1536.01 1316.86 1540.07 1317.46 1544.16 1317.81C1547.94 1318.21 1551.76 1318.21 1555.55 1317.81C1559.35 1317.34 1562.69 1316.19 1564.47 1313.99C1566.26 1311.79 1566.64 1308.25 1564.11 1303.11C1561.34 1297.46 1560.26 1291.11 1561.02 1284.85C1561.17 1283.09 1561.46 1281.24 1561.8 1279.33C1565.59 1259.38 1579.78 1230.55 1596.24 1175.33C1620.34 1094.46 1589.83 1015.21 1589.83 1015.21C1589.83 1010.24 1589.83 985.43 1589.83 940.76C1542.6 935.9 1516.36 933.21 1511.11 932.67C1511.11 932.67 1514.91 952.7 1520.13 978.75C1523.67 997.1 1527.92 1018.42 1531.91 1037.81C1536.64 1060.38 1536.33 1083.73 1530.98 1106.16Z" id="c1msMjW2aN"></path><path d="M1530.98 1106.16C1530.02 1110.42 1528.75 1114.61 1527.18 1118.68C1527.47 1130.5 1528.91 1189.58 1531.51 1295.92C1531.81 1307.98 1531.97 1314.68 1532 1316.02C1536.01 1316.86 1540.07 1317.46 1544.16 1317.81C1547.94 1318.21 1551.76 1318.21 1555.55 1317.81C1559.35 1317.34 1562.69 1316.19 1564.47 1313.99C1566.26 1311.79 1566.64 1308.25 1564.11 1303.11C1561.34 1297.46 1560.26 1291.11 1561.02 1284.85C1561.17 1283.09 1561.46 1281.24 1561.8 1279.33C1565.59 1259.38 1579.78 1230.55 1596.24 1175.33C1620.34 1094.46 1589.83 1015.21 1589.83 1015.21C1589.83 1010.24 1589.83 985.43 1589.83 940.76C1542.6 935.9 1516.36 933.21 1511.11 932.67C1511.11 932.67 1514.91 952.7 1520.13 978.75C1523.67 997.1 1527.92 1018.42 1531.91 1037.81C1536.64 1060.38 1536.33 1083.73 1530.98 1106.16Z" id="b4S2F3pAQ8"></path><path d="M1422.66 940.76C1427.85 951.77 1432.22 963.17 1435.71 974.85C1442.77 998.55 1447.55 1022.88 1449.97 1047.5C1450.45 1053.65 1454.31 1102.82 1454.79 1108.97C1454.79 1108.97 1491.75 1248.06 1502.99 1273.95C1510.98 1292.36 1509.23 1330.41 1507.54 1350.85C1506.86 1359.15 1506.2 1364.54 1506.2 1364.54C1507.29 1363.19 1512.75 1356.46 1522.58 1344.33L1544.06 1317.81L1553.86 1305.71C1555.15 1304.13 1555.86 1303.25 1556.01 1303.07C1553.41 1297.65 1551.32 1292 1549.74 1286.19C1549.74 1286.19 1549.74 1286.19 1549.74 1286.19C1544.77 1268.48 1541.49 1250.33 1539.96 1231.99C1535.14 1181.85 1533.54 1113.9 1533.54 1113.9C1533.37 1113.39 1532.52 1110.84 1531 1106.25L1515.8 1060.54L1512.29 980.24L1510.98 950.51C1463.88 945.31 1434.44 942.06 1422.66 940.76Z" id="a3s0CmclhE"></path><path d="M1527.83 1327.7C1522.72 1345.19 1513.74 1372.07 1506.2 1374.24C1494.95 1377.47 1483.71 1409.82 1512.61 1416.3C1541.52 1422.78 1565.63 1390.41 1565.63 1390.41C1565.63 1390.41 1567.25 1333.8 1576.87 1324.1C1586.5 1314.41 1568.84 1282.04 1560.81 1278.81C1557.6 1277.49 1552.17 1282.84 1546.93 1289.67C1538.27 1301.04 1531.79 1313.93 1527.83 1327.7Z" id="g648yaSrZ9"></path><path d="M1525.55 1409.38C1543.5 1402.14 1555.77 1385.19 1557.11 1365.77C1558.47 1348.44 1561.36 1325.15 1567.23 1319.25C1574.82 1311.6 1565.33 1289.8 1557.16 1279.38C1558.23 1278.66 1559.56 1278.45 1560.79 1278.81C1568.82 1282.04 1586.5 1314.39 1576.86 1324.1C1567.21 1333.82 1565.61 1390.41 1565.61 1390.41C1565.61 1390.41 1541.55 1422.76 1512.63 1416.26C1508.43 1415.44 1504.48 1413.61 1501.13 1410.93C1501.73 1411.12 1502.34 1411.29 1502.99 1411.44C1510.54 1413.04 1518.4 1412.32 1525.55 1409.38Z" id="bPBuECMYO"></path><path d="M1577.69 1409.01L1566.45 1409.01C1567.38 1358.92 1567.9 1331.08 1568.01 1325.52C1568.1 1323.77 1569.57 1322.41 1571.31 1322.48C1571.31 1322.48 1571.31 1322.48 1571.31 1322.48C1573.02 1322.42 1574.47 1323.74 1574.6 1325.46C1575.01 1336.6 1576.04 1364.45 1577.69 1409.01Z" id="b3biWsL0yC"></path><path d="M1577.69 1409.01L1566.45 1409.01C1567.38 1358.92 1567.9 1331.08 1568.01 1325.52C1568.1 1323.77 1569.57 1322.41 1571.31 1322.48C1571.31 1322.48 1571.31 1322.48 1571.31 1322.48C1573.02 1322.42 1574.47 1323.74 1574.6 1325.46C1575.01 1336.6 1576.04 1364.45 1577.69 1409.01Z" id="c2InC4acI"></path><path d="M1513.37 1332.55C1508.27 1350.05 1499.28 1376.93 1491.75 1379.09C1480.5 1382.32 1469.26 1414.67 1498.16 1421.15C1527.07 1427.64 1551.18 1395.23 1551.18 1395.23C1551.18 1395.23 1552.8 1338.62 1562.42 1328.92C1572.05 1319.23 1554.39 1286.86 1546.36 1283.63C1543.11 1282.42 1537.72 1287.7 1532.48 1294.53C1523.81 1305.89 1517.34 1318.79 1513.37 1332.55Z" id="h1sovRZ7zm"></path><path d="M1511.1 1414.2C1529.05 1406.96 1541.32 1390.01 1542.66 1370.58C1544.02 1353.26 1546.91 1329.97 1552.78 1324.07C1560.37 1316.42 1550.88 1294.62 1542.71 1284.2C1543.78 1283.48 1545.11 1283.27 1546.34 1283.63C1554.37 1286.86 1572.05 1319.21 1562.4 1328.92C1552.76 1338.63 1551.18 1395.23 1551.18 1395.23C1551.18 1395.23 1527.08 1427.58 1498.16 1421.12C1493.96 1420.3 1490.01 1418.47 1486.66 1415.78C1487.34 1415.97 1487.89 1416.15 1488.54 1416.26C1496.09 1417.85 1503.95 1417.13 1511.1 1414.2Z" id="d2eQvKEkp"></path><path d="M1563.22 1413.77L1551.9 1413.77C1552.84 1363.68 1553.36 1335.85 1553.46 1330.28C1553.55 1328.53 1555.02 1327.17 1556.76 1327.24C1556.76 1327.24 1556.76 1327.24 1556.76 1327.24C1558.51 1327.14 1560 1328.47 1560.13 1330.22C1560.54 1341.36 1561.57 1369.21 1563.22 1413.77Z" id="cCjggqMYZ"></path><path d="M1563.22 1413.77L1551.9 1413.77C1552.84 1363.68 1553.36 1335.85 1553.46 1330.28C1553.55 1328.53 1555.02 1327.17 1556.76 1327.24C1556.76 1327.24 1556.76 1327.24 1556.76 1327.24C1558.51 1327.14 1560 1328.47 1560.13 1330.22C1560.54 1341.36 1561.57 1369.21 1563.22 1413.77Z" id="cacgFnCKa"></path><path d="M1488.54 536.41C1533.84 542.24 1559 545.48 1564.04 546.13C1564.04 546.13 1610.62 453.93 1609.02 449.07C1609.02 449.07 1583.31 434.52 1560.83 416.72C1538.35 398.92 1565.65 324.53 1565.65 324.53C1558.26 325.18 1499.15 330.35 1491.76 330.99C1492.05 331.99 1492.33 332.9 1492.54 334.01C1495.49 346.57 1494.44 360.51 1492.18 372.77C1490.12 383.3 1487.29 393.67 1483.71 403.78C1480.5 413.47 1424.28 434.51 1424.28 434.51C1432.84 448.09 1454.26 482.06 1488.54 536.41Z" id="g45NUorD2c"></path><path d="M1511.02 932.67C1511.02 932.67 1514.82 952.7 1520.04 978.75C1543.96 973.62 1567.31 966.12 1589.75 956.34C1589.75 955.3 1589.75 950.1 1589.75 940.76C1547.76 936.44 1521.52 933.75 1511.02 932.67Z" id="chugs6rWx"></path><path d="M1422.66 940.76C1427.85 951.77 1432.22 963.17 1435.71 974.85C1458.06 985 1485.86 984.71 1512.31 980.18C1512.22 978.2 1511.79 968.29 1511 950.45C1463.89 945.28 1434.44 942.05 1422.66 940.76Z" id="aveQwxHBX"></path><path d="M1387.15 787.47C1388.49 812.24 1392.8 836.75 1399.99 860.47C1408.76 891.31 1413.17 923.24 1413.09 955.32C1467.7 1015.17 1602.64 947.24 1602.64 947.24C1602.64 947.24 1591.4 880.93 1602.64 834.01C1610.47 801.39 1612.14 772.66 1604.2 745.12C1600.55 732.54 1595.16 720.54 1588.19 709.46C1586.07 706.06 1584 702.3 1582 698.26C1563.39 660.37 1552.64 598.11 1582.57 563.77C1585.68 560.2 1589.19 556.99 1593.02 554.21C1619.11 535.19 1630.99 514.06 1636.01 496.19C1639.14 485.08 1639.79 473.41 1637.91 462.02C1634.7 444.22 1589.71 428.04 1589.71 428.04C1591.33 481.43 1523.86 526.7 1523.86 526.7C1523.86 526.7 1446.74 426.42 1433.9 423.19C1421.07 419.96 1377.68 444.22 1374.47 452.31C1371.26 460.39 1409.81 520.24 1409.81 520.24C1409.81 520.24 1433.92 641.53 1403.39 693.29C1388.06 719.27 1385.71 756.65 1387.15 787.47Z" id="bg1kdAWj5"></path><path d="M1635.95 496.17C1634.7 469.4 1628.35 465.25 1628.35 465.25C1628.35 465.25 1575.28 516.99 1580.1 534.85C1581.2 538.96 1582 549.7 1582.51 563.83C1585.62 560.23 1589.13 557 1592.96 554.19C1619.05 535.17 1630.94 514.04 1635.95 496.17Z" id="h7Ktsvqih"></path><path d="M1572.07 871.22C1573.1 854.66 1591.23 789.75 1604.14 745.14C1600.49 732.56 1595.1 720.56 1588.14 709.48C1586.01 706.08 1583.94 702.31 1581.94 698.28C1575.85 713.37 1551.37 775.2 1552.8 793.59C1554.41 814.62 1543.15 845.35 1543.15 845.35C1543.15 845.35 1491.75 889 1502.99 922.97C1514.23 956.95 1570.46 897.09 1572.07 871.22Z" id="fexehEBi"></path><path d="M1631.51 584.92C1630.38 596.57 1621.39 689.73 1620.27 701.38C1620.27 701.38 1576.89 845.33 1575.28 871.22C1573.67 897.1 1517.46 956.93 1506.2 922.97C1494.94 889.02 1546.36 845.33 1546.36 845.33C1546.36 845.33 1557.6 814.6 1556.01 793.57C1554.41 772.54 1586.52 694.91 1586.52 694.91C1586.52 694.91 1588.14 552.59 1583.31 534.79C1578.49 516.99 1631.51 465.23 1631.51 465.23C1631.51 489.17 1649.19 476.55 1631.51 584.92Z" id="cOjesrQiZ"></path><path d="M1393.76 452.29C1393.76 452.29 1372.87 457.14 1393.76 565.51C1395.05 577.32 1405.33 671.79 1406.62 683.6C1406.62 683.6 1435.54 853.44 1433.92 872.88C1433.92 872.88 1496.59 942.44 1501.39 914.94C1501.39 914.94 1469.26 842.16 1469.26 842.16C1469.26 842.16 1453.16 806.52 1453.16 740.19C1452.95 736.63 1451.88 718.84 1449.95 686.81L1427.49 494.35C1409.5 471.92 1398.26 457.9 1393.76 452.29Z" id="a5TStikdo0"></path><path d="M1390.49 452.29C1390.49 452.29 1369.61 457.14 1390.49 565.51C1391.78 577.32 1402.06 671.79 1403.35 683.6C1403.35 683.6 1432.27 853.44 1430.66 872.88C1430.66 872.88 1493.32 942.44 1498.13 914.94C1498.13 914.94 1466 842.16 1466 842.16C1466 842.16 1449.93 806.57 1449.93 740.25C1449.72 736.69 1448.65 718.89 1446.72 686.87L1424.28 494.35C1406.26 471.92 1395 457.9 1390.49 452.29Z" id="b6lufgSeA9"></path><path d="M1580.92 527.5C1513.45 545.3 1588.93 466.01 1588.93 466.01C1588.93 466.01 1614.57 427.22 1638.74 457.95C1627.18 471.86 1648.39 509.7 1580.92 527.5Z" id="iVC5Y8qkN"></path><path d="M1579.31 525.88C1511.76 543.68 1587.34 464.41 1587.34 464.41C1587.34 464.41 1613.03 425.6 1637.13 456.34C1625.56 470.25 1646.85 508.08 1579.31 525.88Z" id="b21BXWlRV"></path><path d="M1521.46 354.43C1532.57 354.43 1543.04 376.82 1552.3 372.08C1555 357 1558.93 342.17 1564.04 327.74C1556.89 328.38 1499.69 333.45 1492.54 334.09C1495.47 346.57 1494.44 360.49 1492.18 372.75C1501.05 375.35 1510.98 354.43 1521.46 354.43Z" id="a4tIcEZf2l"></path><path d="M1523.08 238.8C1485.38 238.8 1454.81 269.57 1454.81 307.53C1454.81 345.49 1485.38 376.27 1523.08 376.27C1560.78 376.27 1591.34 345.49 1591.34 307.53C1591.34 269.57 1560.78 238.8 1523.08 238.8Z" id="fuwYJtsWX"></path><path d="M1453.06 294.45C1461.68 300.67 1469.82 307.53 1477.41 314.97C1482.77 319.9 1487.36 325.63 1491.02 331.95C1496.44 342.12 1497.16 353.63 1497.8 364.83C1498.47 376.41 1503.77 468.99 1504.43 480.56C1504.87 488.21 1505.3 496.03 1503.37 503.51C1501.4 509.88 1498.64 515.97 1495.14 521.63C1486.39 537.27 1477.39 553.22 1463.3 565.61C1458.59 569.72 1452.86 575.03 1455.34 580.43C1457.36 584.77 1463.55 586.16 1468.86 586.79C1491.18 589.81 1515.9 592.4 1534.68 581.44C1541.76 577.31 1547.63 571.38 1555.57 568.82C1566.62 565.28 1578.81 568.97 1590.58 568.95C1603.08 568.95 1615.01 564.77 1626.66 560.64C1628.9 560.07 1630.95 558.91 1632.59 557.27C1633.52 555.91 1634.1 554.34 1634.28 552.7C1636.05 543.32 1637.72 533.58 1634.83 524.39C1631.7 514.43 1623.44 505.8 1622.51 495.52C1621.29 481.21 1634.39 469.57 1643.81 457.81C1663.86 432.78 1668.33 396.74 1647.74 372.06C1637.13 359.33 1633.8 345.6 1624.63 332.04C1616.24 319.64 1614.64 304.74 1612.63 290.44C1610.13 272.66 1606.69 255.03 1602.34 237.61C1601.07 232.49 1593.98 229.35 1590.47 225.09C1583.67 216.87 1563.89 217.15 1552.49 215.32C1533.31 212.26 1512.61 209.39 1495.09 216.98C1482.93 222.26 1474.2 231.9 1464.7 240.37C1451.26 252.45 1418.64 256.23 1433.87 277.86C1438.61 284.59 1446.09 289.33 1453.06 294.45Z" id="d3KENxebaE"></path><path d="M1454.68 291.22C1463.29 297.45 1471.43 304.32 1479.02 311.78C1484.39 316.71 1488.98 322.44 1492.64 328.76C1498.05 338.93 1498.77 350.44 1499.42 361.64C1500.09 373.21 1505.43 465.76 1506.1 477.33C1506.54 484.98 1506.97 492.8 1505.04 500.28C1503.07 506.65 1500.31 512.74 1496.82 518.4C1488.06 534.04 1479.06 549.99 1464.97 562.38C1460.26 566.49 1454.53 571.8 1457.01 577.2C1459.03 581.54 1465.22 582.93 1470.53 583.56C1492.85 586.58 1517.57 589.16 1536.35 578.21C1543.43 574.08 1549.3 568.15 1557.24 565.59C1568.29 562.05 1580.48 565.74 1592.26 565.72C1604.75 565.72 1616.68 561.54 1628.34 557.41C1630.57 556.84 1632.62 555.68 1634.26 554.04C1635.19 552.68 1635.77 551.11 1635.95 549.47C1637.72 540.08 1639.39 530.35 1636.5 521.16C1633.37 511.19 1625.11 502.57 1624.18 492.29C1622.96 477.98 1636.06 466.34 1645.48 454.58C1665.54 429.55 1670 393.51 1649.41 368.83C1638.8 356.1 1635.48 342.37 1626.3 328.81C1617.91 316.4 1616.32 301.51 1614.3 287.21C1611.8 269.43 1608.36 251.79 1604.01 234.38C1602.74 229.26 1595.66 226.12 1592.14 221.86C1585.34 213.64 1565.56 213.92 1554.16 212.09C1534.98 209.03 1514.29 206.16 1496.76 213.75C1484.61 219.03 1475.87 228.66 1466.38 237.13C1452.78 249.22 1420.25 253 1435.48 274.63C1440.23 281.36 1447.71 286.1 1454.68 291.22Z" id="a3EQk5qI7r"></path><path d="M694.07 1198.03C694.07 1198.03 694.07 1198.03 694.07 1198.03C694.07 1199.89 694.07 1200.93 694.07 1201.14C694.07 1201.14 694.07 1201.14 694.07 1201.14C331.16 1201.14 129.54 1201.14 89.21 1201.14C89.21 1201.14 89.21 1201.14 89.21 1201.14C89.21 1199.27 89.21 1198.23 89.21 1198.03C89.21 1198.03 89.21 1198.03 89.21 1198.03C452.13 1198.03 653.75 1198.03 694.07 1198.03Z" id="d222jpyGZz"></path><path d="M452.77 655.56C412.21 655.56 379.33 688.73 379.33 729.64C379.33 770.56 412.21 803.73 452.77 803.73C493.33 803.73 526.21 770.56 526.21 729.64C526.21 688.73 493.33 655.56 452.77 655.56Z" id="a1bJVNmJf"></path><path d="M225.63 1085.51C225.63 1133.11 225.63 1159.55 225.63 1164.84C225.63 1164.84 119.87 1199.13 146.33 1199.13C178.32 1199.13 246.96 1197.12 246.96 1197.12C247.76 1190.93 251.76 1160 258.96 1104.33L225.63 1085.51Z" id="bhSXhOd2P"></path><path d="M552.2 899.94C552.2 899.94 624.18 934.9 644.17 959.11C644.17 959.11 733.48 1049.2 733.48 1049.2C730.81 1052.16 709.48 1075.83 706.82 1078.78C706.82 1078.78 590.85 1018.27 590.85 1008.86C590.85 1008.86 562.86 1015.58 562.86 1015.58C560.73 992.46 554.33 923.07 552.2 899.94Z" id="d5vUXPp9L"></path><path d="M678.16 932.89C678.16 932.89 736.31 1006.61 708.82 993.4C680.82 979.95 658.17 953.06 658.17 953.06C658.17 953.06 596.29 937.32 595.57 934.77C594.85 932.21 608.18 895.91 608.18 895.91C622.18 903.3 671.16 929.19 678.16 932.89Z" id="d83jiUGZFc"></path><path d="M540.2 909.35L606.85 944.32L632.17 899.94L550.87 855.57L405.58 860.95L429.57 924.15L429.57 924.15L540.2 909.35Z" id="d3w0xUtEB"></path><path d="M762.8 1175.6C762.8 1175.6 762.8 1324.86 762.8 1324.86C757.2 1326.88 712.41 1343.01 706.82 1345.03C706.82 1345.03 678.83 1232.08 694.82 1198.46C694.82 1198.46 654.17 1195.1 624.84 1195.1C595.52 1195.1 581.52 1096.27 581.52 1096.27C617.78 1112.13 761.47 1098.95 762.8 1175.6Z" id="c30YhS2qsk"></path><path d="M772.13 1322.17L694.82 1345.03C706.82 1382.14 713.48 1402.76 714.81 1406.89C714.81 1406.89 704.15 1453.95 706.82 1468.74C706.82 1468.74 714.81 1518.49 714.81 1518.49C715.88 1518.49 721.21 1518.49 730.81 1518.49C732.41 1496.71 733.3 1484.61 733.48 1482.19C733.48 1482.19 798.79 1537.32 828.11 1535.98C828.11 1535.98 866.77 1514.46 866.77 1514.46C866.77 1514.46 866.77 1507.74 846.77 1501.01C846.77 1501.01 780.13 1416.3 780.13 1416.3C779.06 1403.75 776.39 1372.37 772.13 1322.17Z" id="d5gpzJOip5"></path><path d="M456.23 721.1C425.31 721.1 400.25 746.38 400.25 777.58C400.25 808.77 425.31 834.05 456.23 834.05C487.15 834.05 512.21 808.77 512.21 777.58C512.21 746.38 487.15 721.1 456.23 721.1Z" id="c16UeEbKIn"></path><path d="M409.58 777.58L352.26 834.05C386.65 871.17 405.76 891.78 409.58 895.91C409.58 895.91 425.57 836.74 444.23 821.95C439.61 816.03 428.06 801.24 409.58 777.58Z" id="a7xboerFk"></path><path d="M318.94 1046.51C318.94 1046.51 365.59 1195.77 473.56 1197.12C473.56 1197.12 652.83 1197.79 652.83 1197.79C652.83 1197.79 616.18 894.56 557.53 895.91C557.53 895.91 529.54 889.18 521.54 918.77C513.54 948.35 496.22 972.55 485.55 980.62C474.89 988.69 472.22 984.66 474.89 995.41C477.56 1006.17 493.55 1015.58 474.89 1011.55C456.23 1007.52 460.23 998.1 456.23 1011.55C452.23 1025 432.24 994.07 437.57 991.38C442.9 988.69 462.89 959.11 456.23 937.59C449.56 916.08 420.46 863.04 420.46 863.04C420.46 863.04 384.25 801.78 342.93 824.64C338.13 869.01 256.29 910.7 318.94 1046.51Z" id="b2FkyC9S9b"></path><path d="M310.43 1000.75L263.77 1115.05L206.46 1094.88C233.65 1005.32 248.76 955.57 251.78 945.62C251.78 945.62 326.42 817.87 353.08 824.6C379.74 831.32 410.39 877.04 377.07 910.66C368.19 922.67 345.97 952.7 310.43 1000.75Z" id="a8GfJxqSE1"></path><path d="M412.17 622.76C398.01 622.76 386.53 634.34 386.53 648.62C386.53 662.91 398.01 674.49 412.17 674.49C426.33 674.49 437.8 662.91 437.8 648.62C437.8 634.34 426.33 622.76 412.17 622.76Z" id="avvdsvH0Y"></path><path d="M436.26 620.62C448.81 627.23 453.68 642.85 447.12 655.51C440.57 668.18 425.08 673.08 412.53 666.47C410.88 665.6 409.33 664.55 407.9 663.35C419.5 669.48 433.82 665.8 441.1 654.83C448.39 643.85 446.3 629.1 436.26 620.62Z" id="g2QWg7ubEl"></path><path d="M433.47 663.01C433.47 663.01 426.59 680.6 401.84 672.77C401.84 672.77 433.47 663.01 433.47 663.01Z" id="a6xEWTMHm"></path><path d="M433.12 690.84C404.11 690.84 380.58 714.57 380.58 743.85C380.58 773.12 404.11 796.85 433.12 796.85C462.14 796.85 485.66 773.12 485.66 743.85C485.66 714.57 462.14 690.84 433.12 690.84Z" id="a21Kioatxe"></path><path d="M524.87 741.94C524.87 761.99 513.24 778.25 498.88 778.25C484.53 778.25 472.89 761.99 472.89 741.94C472.89 721.89 484.53 705.64 498.88 705.64C513.24 705.64 524.87 721.89 524.87 741.94Z" id="aSPsIVbNM"></path><path d="M480.89 773.54C480.89 778.37 478.5 782.28 475.56 782.28C472.61 782.28 470.22 778.37 470.22 773.54C470.22 768.71 472.61 764.8 475.56 764.8C478.5 764.8 480.89 768.71 480.89 773.54Z" id="a6IxyLEto2"></path><path d="M693.39 1002.51L650.32 1070.33C683.22 1090.21 701.49 1101.26 705.15 1103.47C705.15 1103.47 727.51 1145.66 739.04 1154.97C739.04 1154.97 777.1 1186.93 777.1 1186.93C777.89 1186.23 781.88 1182.73 789.06 1176.43C776.21 1159.1 769.07 1149.46 767.65 1147.54C767.65 1147.54 852.03 1145.91 873.09 1125.67C873.09 1125.67 888.13 1084.22 888.13 1084.22C888.13 1084.22 883.79 1079.19 864.51 1087.28C864.51 1087.28 760.06 1067.65 760.06 1067.65C751.17 1058.97 728.95 1037.25 693.39 1002.51Z" id="aYVIfS5Mx"></path></defs><g><g><g><use xlink:href="#g5Uw5tR0Je" opacity="1" fill="#6c63ff" fill-opacity="1"></use><g><use xlink:href="#g5Uw5tR0Je" opacity="1" fill-opacity="0" stroke="#000000" stroke-width="1" stroke-opacity="0"></use></g></g><g><use xlink:href="#e2p9SH12Zz" opacity="1" fill="#6c63ff" fill-opacity="1"></use><g><use xlink:href="#e2p9SH12Zz" opacity="1" fill-opacity="0" stroke="#000000" stroke-width="1" stroke-opacity="0"></use></g></g><g><use xlink:href="#ciXwwzz88" opacity="1" fill="#ffffff" fill-opacity="1"></use><g><use xlink:href="#ciXwwzz88" opacity="1" fill-opacity="0" stroke="#000000" stroke-width="1" stroke-opacity="0"></use></g></g><g><use xlink:href="#e1xbanWzAL" opacity="1" fill="#000000" fill-opacity="0"></use><g><use xlink:href="#e1xbanWzAL" opacity="1" fill-opacity="0" stroke="#535461" stroke-width="1" stroke-opacity="1"></use></g></g><g><use xlink:href="#ad11iWYWo" opacity="1" fill="#000000" fill-opacity="0"></use><g><use xlink:href="#ad11iWYWo" opacity="1" fill-opacity="0" stroke="#535461" stroke-width="2" stroke-opacity="1"></use></g></g><g><use xlink:href="#aqokGMczt" opacity="1" fill="#6c63ff" fill-opacity="1"></use><g><use xlink:href="#aqokGMczt" opacity="1" fill-opacity="0" stroke="#000000" stroke-width="1" stroke-opacity="0"></use></g></g><g><use xlink:href="#acIhO7IsS" opacity="1" fill="#6c63ff" fill-opacity="1"></use><g><use xlink:href="#acIhO7IsS" opacity="1" fill-opacity="0" stroke="#000000" stroke-width="1" stroke-opacity="0"></use></g></g><g><use xlink:href="#h1pkUbk6eQ" opacity="1" fill="#6c63ff" fill-opacity="1"></use><g><use xlink:href="#h1pkUbk6eQ" opacity="1" fill-opacity="0" stroke="#000000" stroke-width="1" stroke-opacity="0"></use></g></g><g><use xlink:href="#i2a1oJ3SU" opacity="1" fill="#6c63ff" fill-opacity="1"></use><g><use xlink:href="#i2a1oJ3SU" opacity="1" fill-opacity="0" stroke="#000000" stroke-width="1" stroke-opacity="0"></use></g></g><g><use xlink:href="#b6Ei92VH8" opacity="1" fill="#6c63ff" fill-opacity="1"></use><g><use xlink:href="#b6Ei92VH8" opacity="1" fill-opacity="0" stroke="#000000" stroke-width="1" stroke-opacity="0"></use></g></g><g><use xlink:href="#b7Yca1ZfKA" opacity="1" fill="#6c63ff" fill-opacity="1"></use><g><use xlink:href="#b7Yca1ZfKA" opacity="1" fill-opacity="0" stroke="#000000" stroke-width="1" stroke-opacity="0"></use></g></g><g><use xlink:href="#c1eG7rxXM5" opacity="1" fill="#6c63ff" fill-opacity="1"></use><g><use xlink:href="#c1eG7rxXM5" opacity="1" fill-opacity="0" stroke="#000000" stroke-width="1" stroke-opacity="0"></use></g></g><g><use xlink:href="#a1ABHHmmMZ" opacity="1" fill="#fc6681" fill-opacity="1"></use><g><use xlink:href="#a1ABHHmmMZ" opacity="1" fill-opacity="0" stroke="#000000" stroke-width="1" stroke-opacity="0"></use></g></g><g><use xlink:href="#bligx0FTL" opacity="1" fill="#fc6681" fill-opacity="1"></use><g><use xlink:href="#bligx0FTL" opacity="1" fill-opacity="0" stroke="#000000" stroke-width="1" stroke-opacity="0"></use></g></g><g><use xlink:href="#aa86MXlFQ" opacity="1" fill="#fc6681" fill-opacity="1"></use><g><use xlink:href="#aa86MXlFQ" opacity="1" fill-opacity="0" stroke="#000000" stroke-width="1" stroke-opacity="0"></use></g></g><g><use xlink:href="#i6HPZ6sxdE" opacity="1" fill="#fc6681" fill-opacity="1"></use><g><use xlink:href="#i6HPZ6sxdE" opacity="1" fill-opacity="0" stroke="#000000" stroke-width="1" stroke-opacity="0"></use></g></g><g><use xlink:href="#adggLaUXq" opacity="1" fill="#fc6681" fill-opacity="1"></use><g><use xlink:href="#adggLaUXq" opacity="1" fill-opacity="0" stroke="#000000" stroke-width="1" stroke-opacity="0"></use></g></g><g><use xlink:href="#a4ZXOPmZJR" opacity="1" fill="#fc6681" fill-opacity="1"></use><g><use xlink:href="#a4ZXOPmZJR" opacity="1" fill-opacity="0" stroke="#000000" stroke-width="1" stroke-opacity="0"></use></g></g><g><use xlink:href="#a8phnkjhmz" opacity="1" fill="#fc6681" fill-opacity="1"></use><g><use xlink:href="#a8phnkjhmz" opacity="1" fill-opacity="0" stroke="#000000" stroke-width="1" stroke-opacity="0"></use></g></g><g><use xlink:href="#c2sq2Z2QEN" opacity="1" fill="#000000" fill-opacity="0"></use><g><use xlink:href="#c2sq2Z2QEN" opacity="1" fill-opacity="0" stroke="#535461" stroke-width="2" stroke-opacity="1"></use></g></g><g><use xlink:href="#b9XyhON61" opacity="1" fill="#6c63ff" fill-opacity="1"></use><g><use xlink:href="#b9XyhON61" opacity="1" fill-opacity="0" stroke="#000000" stroke-width="1" stroke-opacity="0"></use></g></g><g><use xlink:href="#b1wAaedVyn" opacity="1" fill="#6c63ff" fill-opacity="1"></use><g><use xlink:href="#b1wAaedVyn" opacity="1" fill-opacity="0" stroke="#000000" stroke-width="1" stroke-opacity="0"></use></g></g><g><use xlink:href="#b2fF32Blfp" opacity="1" fill="#6c63ff" fill-opacity="1"></use><g><use xlink:href="#b2fF32Blfp" opacity="1" fill-opacity="0" stroke="#000000" stroke-width="1" stroke-opacity="0"></use></g></g><g><use xlink:href="#b9uyHLE32" opacity="1" fill="#6c63ff" fill-opacity="1"></use><g><use xlink:href="#b9uyHLE32" opacity="1" fill-opacity="0" stroke="#000000" stroke-width="1" stroke-opacity="0"></use></g></g><g><use xlink:href="#f4AyekGTSv" opacity="1" fill="#6c63ff" fill-opacity="1"></use><g><use xlink:href="#f4AyekGTSv" opacity="1" fill-opacity="0" stroke="#000000" stroke-width="1" stroke-opacity="0"></use></g></g><g><use xlink:href="#a2qprCcDjp" opacity="1" fill="#6c63ff" fill-opacity="1"></use><g><use xlink:href="#a2qprCcDjp" opacity="1" fill-opacity="0" stroke="#000000" stroke-width="1" stroke-opacity="0"></use></g></g><g><use xlink:href="#gfQPpBWW0" opacity="1" fill="#ffd037" fill-opacity="1"></use><g><use xlink:href="#gfQPpBWW0" opacity="1" fill-opacity="0" stroke="#000000" stroke-width="1" stroke-opacity="0"></use></g></g><g><use xlink:href="#e3gIlZHU4" opacity="1" fill="#ffd037" fill-opacity="1"></use><g><use xlink:href="#e3gIlZHU4" opacity="1" fill-opacity="0" stroke="#000000" stroke-width="1" stroke-opacity="0"></use></g></g><g><use xlink:href="#c1OiyydPYs" opacity="1" fill="#6c63ff" fill-opacity="1"></use><g><use xlink:href="#c1OiyydPYs" opacity="1" fill-opacity="0" stroke="#000000" stroke-width="1" stroke-opacity="0"></use></g></g><g><use xlink:href="#d21O8Fh94A" opacity="1" fill="#000000" fill-opacity="0"></use><g><use xlink:href="#d21O8Fh94A" opacity="1" fill-opacity="0" stroke="#535461" stroke-width="2" stroke-opacity="1"></use></g></g><g><use xlink:href="#n4hIAlyDBi" opacity="1" fill="#6c63ff" fill-opacity="1"></use><g><use xlink:href="#n4hIAlyDBi" opacity="1" fill-opacity="0" stroke="#000000" stroke-width="1" stroke-opacity="0"></use></g></g><g><use xlink:href="#g3liCh486N" opacity="1" fill="#000000" fill-opacity="1"></use><g><use xlink:href="#g3liCh486N" opacity="1" fill-opacity="0" stroke="#000000" stroke-width="1" stroke-opacity="0"></use></g></g><g><use xlink:href="#civz092VI" opacity="1" fill="#ffd037" fill-opacity="1"></use><g><use xlink:href="#civz092VI" opacity="1" fill-opacity="0" stroke="#000000" stroke-width="1" stroke-opacity="0"></use></g></g><g><use xlink:href="#a2ZcyEVGHE" opacity="1" fill="#ffd037" fill-opacity="1"></use><g><use xlink:href="#a2ZcyEVGHE" opacity="1" fill-opacity="0" stroke="#000000" stroke-width="1" stroke-opacity="0"></use></g></g><g><use xlink:href="#bddaED79v" opacity="1" fill="#6c63ff" fill-opacity="1"></use><g><use xlink:href="#bddaED79v" opacity="1" fill-opacity="0" stroke="#000000" stroke-width="1" stroke-opacity="0"></use></g></g><g><use xlink:href="#b1fFthLkeI" opacity="1" fill="#000000" fill-opacity="1"></use><g><use xlink:href="#b1fFthLkeI" opacity="1" fill-opacity="0" stroke="#000000" stroke-width="1" stroke-opacity="0"></use></g></g><g><use xlink:href="#a6eMnbahx8" opacity="1" fill="#ffd037" fill-opacity="1"></use><g><use xlink:href="#a6eMnbahx8" opacity="1" fill-opacity="0" stroke="#000000" stroke-width="1" stroke-opacity="0"></use></g></g><g><use xlink:href="#b6gccpwi6" opacity="1" fill="#ffd037" fill-opacity="1"></use><g><use xlink:href="#b6gccpwi6" opacity="1" fill-opacity="0" stroke="#000000" stroke-width="1" stroke-opacity="0"></use></g></g><g><use xlink:href="#b6nmNoOP8" opacity="1" fill="url(#gradienta71ogWIsj9)"></use><g><use xlink:href="#b6nmNoOP8" opacity="1" fill-opacity="0" stroke="#000000" stroke-width="1" stroke-opacity="0"></use></g></g><g><use xlink:href="#f3dwq12Voz" opacity="1" fill="#e2e2ec" fill-opacity="1"></use><g><use xlink:href="#f3dwq12Voz" opacity="1" fill-opacity="0" stroke="#000000" stroke-width="1" stroke-opacity="0"></use></g></g><g><use xlink:href="#cdIlJA83j" opacity="1" fill="#000000" fill-opacity="1"></use><g><use xlink:href="#cdIlJA83j" opacity="1" fill-opacity="0" stroke="#000000" stroke-width="1" stroke-opacity="0"></use></g></g><g><use xlink:href="#amgYAnM09" opacity="1" fill="#f1f2fb" fill-opacity="1"></use><g><use xlink:href="#amgYAnM09" opacity="1" fill-opacity="0" stroke="#000000" stroke-width="1" stroke-opacity="0"></use></g></g><g><use xlink:href="#k1v55ncVc" opacity="1" fill="#000000" fill-opacity="1"></use><g><use xlink:href="#k1v55ncVc" opacity="1" fill-opacity="0" stroke="#000000" stroke-width="1" stroke-opacity="0"></use></g></g><g><use xlink:href="#a16uC1crop" opacity="1" fill="#e8eaf8" fill-opacity="1"></use><g><use xlink:href="#a16uC1crop" opacity="1" fill-opacity="0" stroke="#000000" stroke-width="1" stroke-opacity="0"></use></g></g><g><use xlink:href="#cCyX3u8uA" opacity="1" fill="#000000" fill-opacity="1"></use><g><use xlink:href="#cCyX3u8uA" opacity="1" fill-opacity="0" stroke="#000000" stroke-width="1" stroke-opacity="0"></use></g></g><g><use xlink:href="#gMUyGG1Sp" opacity="1" fill="#000000" fill-opacity="0"></use><g><use xlink:href="#gMUyGG1Sp" opacity="1" fill-opacity="0" stroke="#000000" stroke-width="4" stroke-opacity="1"></use></g></g><g><use xlink:href="#g2goyMp0Vy" opacity="1" fill="#000000" fill-opacity="0"></use><g><use xlink:href="#g2goyMp0Vy" opacity="1" fill-opacity="0" stroke="#000000" stroke-width="4" stroke-opacity="1"></use></g></g><g><use xlink:href="#ar2D2VXyh" opacity="1" fill="#000000" fill-opacity="0"></use><g><use xlink:href="#ar2D2VXyh" opacity="1" fill-opacity="0" stroke="#000000" stroke-width="4" stroke-opacity="1"></use></g></g><g><use xlink:href="#eDNgttvr6" opacity="1" fill="#000000" fill-opacity="0"></use><g><use xlink:href="#eDNgttvr6" opacity="1" fill-opacity="0" stroke="#000000" stroke-width="4" stroke-opacity="1"></use></g></g><g><use xlink:href="#j4dQ3HO1yN" opacity="1" fill="#000000" fill-opacity="0"></use><g><use xlink:href="#j4dQ3HO1yN" opacity="1" fill-opacity="0" stroke="#000000" stroke-width="4" stroke-opacity="1"></use></g></g><g><use xlink:href="#f1l72Vr8fO" opacity="1" fill="#000000" fill-opacity="0"></use><g><use xlink:href="#f1l72Vr8fO" opacity="1" fill-opacity="0" stroke="#000000" stroke-width="4" stroke-opacity="1"></use></g></g><g><use xlink:href="#auOxdus8t" opacity="1" fill="#000000" fill-opacity="0"></use><g><use xlink:href="#auOxdus8t" opacity="1" fill-opacity="0" stroke="#000000" stroke-width="4" stroke-opacity="1"></use></g></g><g><use xlink:href="#e2fwubSnSr" opacity="1" fill="#000000" fill-opacity="0"></use><g><use xlink:href="#e2fwubSnSr" opacity="1" fill-opacity="0" stroke="#000000" stroke-width="4" stroke-opacity="1"></use></g></g><g><use xlink:href="#hoxQuh0z1" opacity="1" fill="#6c63ff" fill-opacity="1"></use><g><use xlink:href="#hoxQuh0z1" opacity="1" fill-opacity="0" stroke="#000000" stroke-width="1" stroke-opacity="0"></use></g></g><g><use xlink:href="#d2C9bf1cw6" opacity="1" fill="url(#gradientbh25rDLHA)"></use><g><use xlink:href="#d2C9bf1cw6" opacity="1" fill-opacity="0" stroke="#000000" stroke-width="1" stroke-opacity="0"></use></g></g><g><use xlink:href="#c1msMjW2aN" opacity="1" fill="#fdc2cc" fill-opacity="1"></use><g><use xlink:href="#c1msMjW2aN" opacity="1" fill-opacity="0" stroke="#000000" stroke-width="1" stroke-opacity="0"></use></g></g><g><use xlink:href="#b4S2F3pAQ8" opacity="1" fill="#fdc2cc" fill-opacity="1"></use><g><use xlink:href="#b4S2F3pAQ8" opacity="1" fill-opacity="0" stroke="#000000" stroke-width="1" stroke-opacity="0"></use></g></g><g><use xlink:href="#a3s0CmclhE" opacity="1" fill="#fdc2cc" fill-opacity="1"></use><g><use xlink:href="#a3s0CmclhE" opacity="1" fill-opacity="0" stroke="#000000" stroke-width="1" stroke-opacity="0"></use></g></g><g><use xlink:href="#g648yaSrZ9" opacity="1" fill="#5f5d7e" fill-opacity="1"></use><g><use xlink:href="#g648yaSrZ9" opacity="1" fill-opacity="0" stroke="#000000" stroke-width="1" stroke-opacity="0"></use></g></g><g><use xlink:href="#bPBuECMYO" opacity="1" fill="#000000" fill-opacity="1"></use><g><use xlink:href="#bPBuECMYO" opacity="1" fill-opacity="0" stroke="#000000" stroke-width="1" stroke-opacity="0"></use></g></g><g><use xlink:href="#b3biWsL0yC" opacity="1" fill="#5f5d7e" fill-opacity="1"></use><g><use xlink:href="#b3biWsL0yC" opacity="1" fill-opacity="0" stroke="#000000" stroke-width="1" stroke-opacity="0"></use></g></g><g><use xlink:href="#c2InC4acI" opacity="1" fill="#000000" fill-opacity="1"></use><g><use xlink:href="#c2InC4acI" opacity="1" fill-opacity="0" stroke="#000000" stroke-width="1" stroke-opacity="0"></use></g></g><g><use xlink:href="#h1sovRZ7zm" opacity="1" fill="#5f5d7e" fill-opacity="1"></use><g><use xlink:href="#h1sovRZ7zm" opacity="1" fill-opacity="0" stroke="#000000" stroke-width="1" stroke-opacity="0"></use></g></g><g><use xlink:href="#d2eQvKEkp" opacity="1" fill="#000000" fill-opacity="1"></use><g><use xlink:href="#d2eQvKEkp" opacity="1" fill-opacity="0" stroke="#000000" stroke-width="1" stroke-opacity="0"></use></g></g><g><use xlink:href="#cCjggqMYZ" opacity="1" fill="#5f5d7e" fill-opacity="1"></use><g><use xlink:href="#cCjggqMYZ" opacity="1" fill-opacity="0" stroke="#000000" stroke-width="1" stroke-opacity="0"></use></g></g><g><use xlink:href="#cacgFnCKa" opacity="1" fill="#000000" fill-opacity="1"></use><g><use xlink:href="#cacgFnCKa" opacity="1" fill-opacity="0" stroke="#000000" stroke-width="1" stroke-opacity="0"></use></g></g><g><use xlink:href="#g45NUorD2c" opacity="1" fill="#fdc2cc" fill-opacity="1"></use><g><use xlink:href="#g45NUorD2c" opacity="1" fill-opacity="0" stroke="#000000" stroke-width="1" stroke-opacity="0"></use></g></g><g><use xlink:href="#chugs6rWx" opacity="1" fill="#000000" fill-opacity="1"></use><g><use xlink:href="#chugs6rWx" opacity="1" fill-opacity="0" stroke="#000000" stroke-width="1" stroke-opacity="0"></use></g></g><g><use xlink:href="#aveQwxHBX" opacity="1" fill="#000000" fill-opacity="1"></use><g><use xlink:href="#aveQwxHBX" opacity="1" fill-opacity="0" stroke="#000000" stroke-width="1" stroke-opacity="0"></use></g></g><g><use xlink:href="#bg1kdAWj5" opacity="1" fill="#d39999" fill-opacity="1"></use><g><use xlink:href="#bg1kdAWj5" opacity="1" fill-opacity="0" stroke="#000000" stroke-width="1" stroke-opacity="0"></use></g></g><g><use xlink:href="#h7Ktsvqih" opacity="1" fill="#000000" fill-opacity="1"></use><g><use xlink:href="#h7Ktsvqih" opacity="1" fill-opacity="0" stroke="#000000" stroke-width="1" stroke-opacity="0"></use></g></g><g><use xlink:href="#fexehEBi" opacity="1" fill="#000000" fill-opacity="1"></use><g><use xlink:href="#fexehEBi" opacity="1" fill-opacity="0" stroke="#000000" stroke-width="1" stroke-opacity="0"></use></g></g><g><use xlink:href="#cOjesrQiZ" opacity="1" fill="#fdc2cc" fill-opacity="1"></use><g><use xlink:href="#cOjesrQiZ" opacity="1" fill-opacity="0" stroke="#000000" stroke-width="1" stroke-opacity="0"></use></g></g><g><use xlink:href="#a5TStikdo0" opacity="1" fill="#000000" fill-opacity="1"></use><g><use xlink:href="#a5TStikdo0" opacity="1" fill-opacity="0" stroke="#000000" stroke-width="1" stroke-opacity="0"></use></g></g><g><use xlink:href="#b6lufgSeA9" opacity="1" fill="#fdc2cc" fill-opacity="1"></use><g><use xlink:href="#b6lufgSeA9" opacity="1" fill-opacity="0" stroke="#000000" stroke-width="1" stroke-opacity="0"></use></g></g><g><use xlink:href="#iVC5Y8qkN" opacity="1" fill="#000000" fill-opacity="1"></use><g><use xlink:href="#iVC5Y8qkN" opacity="1" fill-opacity="0" stroke="#000000" stroke-width="1" stroke-opacity="0"></use></g></g><g><use xlink:href="#b21BXWlRV" opacity="1" fill="#d39999" fill-opacity="1"></use><g><use xlink:href="#b21BXWlRV" opacity="1" fill-opacity="0" stroke="#000000" stroke-width="1" stroke-opacity="0"></use></g></g><g><use xlink:href="#a4tIcEZf2l" opacity="1" fill="#000000" fill-opacity="1"></use><g><use xlink:href="#a4tIcEZf2l" opacity="1" fill-opacity="0" stroke="#000000" stroke-width="1" stroke-opacity="0"></use></g></g><g><use xlink:href="#fuwYJtsWX" opacity="1" fill="#fdc2cc" fill-opacity="1"></use><g><use xlink:href="#fuwYJtsWX" opacity="1" fill-opacity="0" stroke="#000000" stroke-width="1" stroke-opacity="0"></use></g></g><g><use xlink:href="#d3KENxebaE" opacity="1" fill="#000000" fill-opacity="1"></use><g><use xlink:href="#d3KENxebaE" opacity="1" fill-opacity="0" stroke="#000000" stroke-width="1" stroke-opacity="0"></use></g></g><g><use xlink:href="#a3EQk5qI7r" opacity="1" fill="#865a61" fill-opacity="1"></use><g><use xlink:href="#a3EQk5qI7r" opacity="1" fill-opacity="0" stroke="#000000" stroke-width="1" stroke-opacity="0"></use></g></g><g><use xlink:href="#d222jpyGZz" opacity="1" fill="#3f3d56" fill-opacity="1"></use><g><use xlink:href="#d222jpyGZz" opacity="1" fill-opacity="0" stroke="#000000" stroke-width="1" stroke-opacity="0"></use></g></g><g><use xlink:href="#a1bJVNmJf" opacity="1" fill="#2f2e41" fill-opacity="1"></use><g><use xlink:href="#a1bJVNmJf" opacity="1" fill-opacity="0" stroke="#000000" stroke-width="1" stroke-opacity="0"></use></g></g><g><use xlink:href="#bhSXhOd2P" opacity="1" fill="#ffb9b9" fill-opacity="1"></use><g><use xlink:href="#bhSXhOd2P" opacity="1" fill-opacity="0" stroke="#000000" stroke-width="1" stroke-opacity="0"></use></g></g><g><use xlink:href="#d5vUXPp9L" opacity="1" fill="#ffb9b9" fill-opacity="1"></use><g><use xlink:href="#d5vUXPp9L" opacity="1" fill-opacity="0" stroke="#000000" stroke-width="1" stroke-opacity="0"></use></g></g><g><use xlink:href="#d83jiUGZFc" opacity="1" fill="#ffb9b9" fill-opacity="1"></use><g><use xlink:href="#d83jiUGZFc" opacity="1" fill-opacity="0" stroke="#000000" stroke-width="1" stroke-opacity="0"></use></g></g><g><use xlink:href="#d3w0xUtEB" opacity="1" fill="#ffe809" fill-opacity="1"></use><g><use xlink:href="#d3w0xUtEB" opacity="1" fill-opacity="0" stroke="#000000" stroke-width="1" stroke-opacity="0"></use></g></g><g><use xlink:href="#c30YhS2qsk" opacity="1" fill="#ffb9b9" fill-opacity="1"></use><g><use xlink:href="#c30YhS2qsk" opacity="1" fill-opacity="0" stroke="#000000" stroke-width="1" stroke-opacity="0"></use></g></g><g><use xlink:href="#d5gpzJOip5" opacity="1" fill="#2f2e41" fill-opacity="1"></use><g><use xlink:href="#d5gpzJOip5" opacity="1" fill-opacity="0" stroke="#000000" stroke-width="1" stroke-opacity="0"></use></g></g><g><use xlink:href="#c16UeEbKIn" opacity="1" fill="#ffb9b9" fill-opacity="1"></use><g><use xlink:href="#c16UeEbKIn" opacity="1" fill-opacity="0" stroke="#000000" stroke-width="1" stroke-opacity="0"></use></g></g><g><use xlink:href="#a7xboerFk" opacity="1" fill="#ffb9b9" fill-opacity="1"></use><g><use xlink:href="#a7xboerFk" opacity="1" fill-opacity="0" stroke="#000000" stroke-width="1" stroke-opacity="0"></use></g></g><g><use xlink:href="#b2FkyC9S9b" opacity="1" fill="#2f2e41" fill-opacity="1"></use><g><use xlink:href="#b2FkyC9S9b" opacity="1" fill-opacity="0" stroke="#000000" stroke-width="1" stroke-opacity="0"></use></g></g><g><use xlink:href="#a8GfJxqSE1" opacity="1" fill="#ffe809" fill-opacity="1"></use><g><use xlink:href="#a8GfJxqSE1" opacity="1" fill-opacity="0" stroke="#000000" stroke-width="1" stroke-opacity="0"></use></g></g><g><use xlink:href="#avvdsvH0Y" opacity="1" fill="#2f2e41" fill-opacity="1"></use><g><use xlink:href="#avvdsvH0Y" opacity="1" fill-opacity="0" stroke="#000000" stroke-width="1" stroke-opacity="0"></use></g></g><g><use xlink:href="#g2QWg7ubEl" opacity="1" fill="#2f2e41" fill-opacity="1"></use><g><use xlink:href="#g2QWg7ubEl" opacity="1" fill-opacity="0" stroke="#000000" stroke-width="1" stroke-opacity="0"></use></g></g><g><use xlink:href="#a6xEWTMHm" opacity="1" fill="#3f3d56" fill-opacity="1"></use><g><use xlink:href="#a6xEWTMHm" opacity="1" fill-opacity="0" stroke="#000000" stroke-width="1" stroke-opacity="0"></use></g></g><g><use xlink:href="#a21Kioatxe" opacity="1" fill="#2f2e41" fill-opacity="1"></use><g><use xlink:href="#a21Kioatxe" opacity="1" fill-opacity="0" stroke="#000000" stroke-width="1" stroke-opacity="0"></use></g></g><g><use xlink:href="#aSPsIVbNM" opacity="1" fill="#2f2e41" fill-opacity="1"></use><g><use xlink:href="#aSPsIVbNM" opacity="1" fill-opacity="0" stroke="#000000" stroke-width="1" stroke-opacity="0"></use></g></g><g><use xlink:href="#a6IxyLEto2" opacity="1" fill="#ffb9b9" fill-opacity="1"></use><g><use xlink:href="#a6IxyLEto2" opacity="1" fill-opacity="0" stroke="#000000" stroke-width="1" stroke-opacity="0"></use></g></g><g><use xlink:href="#aYVIfS5Mx" opacity="1" fill="#2f2e41" fill-opacity="1"></use><g><use xlink:href="#aYVIfS5Mx" opacity="1" fill-opacity="0" stroke="#000000" stroke-width="1" stroke-opacity="0"></use></g></g></g></g></svg>