<?xml version="1.0" encoding="UTF-8" standalone="no"?>
<!DOCTYPE svg PUBLIC "-//W3C//DTD SVG 1.1//EN" "http://www.w3.org/Graphics/SVG/1.1/DTD/svg11.dtd">
<svg version="1.1" xmlns="http://www.w3.org/2000/svg" xmlns:xlink="http://www.w3.org/1999/xlink" preserveAspectRatio="xMidYMid meet" viewBox="0 0 640 640" width="640" height="640"><defs><path d="M-174.17 211.17C-174.17 211.17 -61.42 148.51 -61.42 148.51C-83.97 161.04 -156.03 181.1 -174.17 211.17Z" id="a8sriOZ3yG"></path><path d="M-228.47 251.48C-231.41 248.83 -229.01 243.82 -226.95 240.28C-199.27 192.83 -60.1 142.84 -54.19 140.73C-53.34 140.43 -49.1 138.92 -41.46 136.2C-48 140.99 -51.64 143.65 -52.36 144.18C-52.77 144.48 -93.25 174.11 -134.7 202.03C-199.13 245.44 -218.26 252.81 -224.88 252.81C-226.21 252.91 -227.52 252.42 -228.47 251.48ZM-223.53 242.27C-226.46 247.28 -225.84 248.54 -225.83 248.55C-225.24 249.19 -217.76 253.19 -137.38 199.08C-109.36 180.22 -81.72 160.52 -66.56 149.6C-103.1 163.74 -201.58 204.63 -223.53 242.27Z" id="a13hSA9MVP"></path><path d="M-177.1 122.32C-203.55 137.63 -63.47 115.97 -63.47 115.97C-86.2 117.24 -150.66 107 -177.1 122.32Z" id="b8g3BLPTZ"></path><path d="M-215.85 123.48C-217.76 119.01 -212.43 114.79 -210.67 113.41C-172.83 83.53 -57.89 113.73 -53.02 115.02C-52.4 115.19 -49.28 116.02 -43.67 117.52C-49.42 118.34 -52.61 118.79 -53.25 118.89C-53.63 118.94 -92.14 124.42 -131.01 127.85C-153.67 129.85 -170.2 130.61 -182.27 130.61C-212.79 130.61 -214.89 125.72 -215.85 123.48ZM-208.23 116.51C-211.71 119.25 -212.57 121.11 -212.22 121.93C-211.33 123.99 -202.89 130.23 -131.35 123.92C-104.7 121.56 -78.21 118.24 -64.14 116.38C-82.17 112.23 -121.19 104.29 -155.53 104.29C-177.03 104.29 -196.69 107.4 -208.23 116.51Z" id="c2nL3nGzJ9"></path><path d="M-71.75 -15.11C-61.13 -25.53 -38.52 100.61 -38.52 100.61C-45.17 77.47 -82.38 -4.68 -71.75 -15.11Z" id="b4Od0nVEv"></path><path d="M-36.1 109.87C-39.37 101.51 -41.19 96.87 -41.55 95.94C-41.68 95.6 -55.03 61.42 -66.02 26.24C-88.67 -46.23 -79.38 -52.41 -76.33 -54.45C-74.8 -55.55 -72.79 -55.72 -71.09 -54.89C-53.99 -46.92 -39.36 80.5 -37.75 95C-37.53 96.99 -36.98 101.94 -36.1 109.87ZM-74.14 -51.16C-85.04 -43.9 -62.95 27.63 -43.53 79.7C-50.19 26.01 -62.46 -46.51 -72.76 -51.31C-72.94 -51.4 -73.13 -51.45 -73.33 -51.46C-73.63 -51.44 -73.91 -51.34 -74.14 -51.16Z" id="bFkGehu6w"></path><path d="M26.25 17.34C50.9 17.34 -21.95 123.77 -21.95 123.77C-12.31 102.48 1.59 17.34 26.25 17.34Z" id="b2Q0IIX7p4"></path><path d="M-28.16 131.11C-26.76 125.85 -25.99 122.93 -25.83 122.35C-24.12 115.92 16.52 -35.04 60.95 -35.04C67.04 -35.04 69.66 -32.18 70.8 -29.79C82.64 -4.7 -11.61 111 -22.4 124.11C-23.17 125.04 -25.09 127.37 -28.16 131.11ZM-19.43 114.2C12.37 74.69 75.77 -10.01 67.23 -28.1C66.88 -28.84 65.81 -31.09 60.95 -31.09C25.48 -31.09 -9.76 80.98 -19.43 114.2Z" id="b2XANc6yB"></path><path d="M238.58 89.3C404.37 104.91 -8.13 124.83 -8.13 124.83C41.21 117.72 72.79 73.69 238.58 89.3Z" id="fBOhBHgzj"></path><path d="M-13.65 126.96C-11.11 124.78 -9.7 123.57 -9.42 123.33C-8.56 122.59 12.07 105.16 53.4 91.13C91.44 78.23 154.84 66.07 240.9 81.44C277.26 87.93 281.98 92.77 281.66 97.03C281.35 101.24 280.61 111.1 135.35 120.24C64.37 124.7 -7.36 126.78 -8.08 126.8C-8.82 126.82 -10.68 126.87 -13.65 126.96ZM-1.96 122.66C17.01 122.05 76.32 119.99 135.11 116.3C270.09 107.8 277.59 98.51 277.72 96.74C277.74 96.55 277.64 92.01 240.2 85.32C214.66 80.67 188.76 78.29 162.8 78.21C69.33 78.21 14.06 111.42 -1.96 122.66Z" id="a193rhDjUw"></path><path d="M192.89 144.07C192.89 144.07 43.18 130.82 43.18 130.82C73.12 133.47 184.93 128.93 192.89 144.07Z" id="d1IOjyGHOH"></path><path d="M42.61 132.64C41.82 132.4 37.88 131.2 30.78 129.05C38.2 128.89 42.31 128.79 43.14 128.78C61.27 128.37 220.57 125.72 230.59 157.79C231.78 161.59 230.4 164.03 229.04 165.4C226.19 168.28 219.8 169.5 211.04 169.5C165.8 169.5 57.04 137.01 42.61 132.64ZM226.24 162.62C226.85 162 227.47 161.03 226.83 158.97C219.71 136.18 111.06 132.17 56.11 132.54C122.6 152.03 214.92 174.04 226.24 162.62Z" id="cyEsLoo7g"></path><path d="M84.44 198.28C67.71 210.46 15.55 146.54 15.55 146.54C29.33 156.89 101.17 186.11 84.44 198.28Z" id="d4XTwZAZmy"></path><path d="M8.12 141.89C7.75 141.45 5.9 139.25 2.57 135.29C7.29 137.4 9.91 138.58 10.44 138.82C16.18 141.39 151.1 202.21 154.05 232.67C154.45 236.71 152.67 240.24 148.93 242.89C145.65 245.12 141.75 246.27 137.78 246.16C96.37 246.16 12.04 146.55 8.12 141.89ZM146.65 239.66C149.28 237.81 150.38 235.71 150.13 233.05C148 211.15 59.83 165.99 16.95 146.12C49.51 183.48 121.96 257.09 146.65 239.66Z" id="afPWnNvzI"></path><path d="M212.92 243.25C197.13 262.98 157.66 193.91 157.66 193.91C168.71 203.77 228.71 223.51 212.92 243.25Z" id="a1C9OyPazE"></path><path d="M159.63 341.93C159.63 341.93 25.42 170.22 25.42 170.22C52.26 204.56 173.45 332.06 159.63 341.93Z" id="a2b4NBxFwU"></path><path d="M47.39 272.27C47.39 272.27 -2.21 158.38 -2.21 158.38C7.71 181.16 60.11 262.18 47.39 272.27Z" id="bJ4EClXTR"></path><path d="M66.04 310.77C43.2 303.26 -2.85 168.44 -8.03 153.09C-8.34 152.18 -9.87 147.63 -12.63 139.44C-7.77 146.58 -5.07 150.55 -4.53 151.35C-4.29 151.7 19.94 187.36 41.43 224.24C81.17 292.43 77.88 305.84 71.95 310C70.89 310.75 69.63 311.15 68.33 311.15C67.55 311.15 66.78 311.02 66.04 310.77ZM67.28 307.02C68.07 307.35 68.98 307.26 69.68 306.76C72.94 304.48 76.39 292.07 38.03 226.25C24.42 202.9 9.71 180.03 0.73 166.37C17.53 214.05 51.35 301.79 67.28 307.02Z" id="e45jLvAUYO"></path><path d="M-50.25 318.24C-50.25 318.24 -28.58 154.43 -28.58 154.43C-32.91 187.19 -84.67 319.94 -50.25 318.24Z" id="a2maJPoIm"></path><path d="M-78.03 338.87C-100.23 305.77 -34.45 159.81 -31.64 153.62C-31.44 153.18 -30.44 150.97 -28.64 147C-28.19 151.34 -27.93 153.74 -27.88 154.23C-27.26 160.14 -13.01 299.42 -45.28 336.63C-50.39 342.51 -56.46 345.62 -63.32 345.88C-63.62 345.89 -63.92 345.9 -64.21 345.9C-70.25 345.9 -74.9 343.53 -78.03 338.87ZM-74.75 336.67C-72.25 340.4 -68.56 342.13 -63.47 341.93C-57.66 341.72 -52.68 339.14 -48.27 334.05C-21.29 302.94 -28.58 192.26 -31.11 162.2C-44.12 192.1 -93.11 309.3 -74.75 336.67Z" id="fbkqOlQyW"></path><path d="M-133.49 281.69C-133.49 281.69 -47.95 162.66 -47.95 162.66C-65.06 186.47 -142.11 270.35 -133.49 281.69Z" id="d16RORh9"></path><path d="M-165.27 319.81C-166.62 318.7 -167.44 317.07 -167.51 315.32C-169.87 288.57 -44.54 149.16 -39.21 143.24C-38.36 142.31 -34.16 137.64 -26.59 129.24C-32.25 139.03 -35.4 144.47 -36.03 145.55C-40.06 152.5 -134.87 315.83 -160.41 320.81C-160.87 320.9 -161.34 320.95 -161.82 320.95C-163.06 320.97 -164.28 320.57 -165.27 319.81ZM-163.58 314.97C-163.6 315.63 -163.33 316.26 -162.84 316.69C-162.35 317.03 -161.73 317.12 -161.16 316.93C-143.52 313.49 -81.88 215.18 -49.59 160.85C-91.11 208.01 -165.22 296.4 -163.58 314.97Z" id="b3aMFQ3Cfw"></path><path d="M-234.21 2.58C-310.11 11.98 -76.21 90.14 -76.21 90.14C-107.81 72.63 -158.3 -6.82 -234.21 2.58Z" id="aYTPJZCvK"></path><path d="M-65.27 94.68C-69.15 93.79 -71.3 93.3 -71.73 93.2C-72.25 93.08 -124.13 81.18 -175.42 66C-280.46 34.92 -280.8 20.63 -280.91 15.93C-281.04 10.26 -275.27 5.88 -263.27 2.53C-218.73 -9.9 -168.44 14.59 -134.1 37.33C-111.04 52.74 -89.53 70.35 -69.87 89.9C-69.26 90.54 -67.72 92.13 -65.27 94.68ZM-262.21 6.33C-271.8 9.01 -277.04 12.39 -276.96 15.84C-276.51 34.79 -160.03 68.58 -77.65 87.78C-97.13 69.1 -170.69 3.1 -237.78 3.1C-246.03 3.06 -254.25 4.15 -262.21 6.33Z" id="b1ssjButgr"></path><path d="M-241.03 95.22C-233.13 114.96 -140.37 83.38 -140.37 83.38C-160.5 85.75 -248.92 75.48 -241.03 95.22Z" id="b5eTDRB6Lz"></path><path d="M-128.53 -11.36C-138.4 -5.44 -112.74 10.35 -112.74 10.35C-115.9 6.01 -118.66 -17.28 -128.53 -11.36Z" id="d10sFUt3GZ"></path><path d="M2.07 -84.32C2.07 -84.32 -12.74 29.9 -12.74 29.9C-9.78 7.06 14.34 -83.9 2.07 -84.32Z" id="e41BUSMhC5"></path><path d="M-17.78 55.1C-17.91 46.03 -17.99 40.99 -18 39.99C-18.07 35.13 -19.58 -79.08 -4.73 -94.15C-3.58 -95.43 -1.96 -96.18 -0.24 -96.23C1.44 -96.22 3.01 -95.42 3.99 -94.06C15.42 -79.43 -11.06 28.21 -14.11 40.44C-14.6 42.39 -15.83 47.28 -17.78 55.1ZM-1.92 -91.38C-11.72 -81.43 -14 -15.21 -14.13 23.73C-3.26 -22.67 7.82 -82.75 0.88 -91.63C0.64 -92.03 0.22 -92.27 -0.24 -92.28C-0.44 -92.28 -1.03 -92.28 -1.92 -91.38Z" id="b1JwRuYIe"></path><path d="M135.95 24.17C147.79 32.06 112.26 45.88 112.26 45.88C117 41.54 124.1 16.27 135.95 24.17Z" id="b1r8JNqnCD"></path><path d="M13.58 422.85C13.58 422.85 -0.24 308.38 -0.24 308.38C2.52 331.27 -16.03 424.83 13.58 422.85Z" id="a2sVvqjUW0"></path><path d="M82.35 281.9C82.35 281.9 67.23 256.68 67.23 239.03C67.23 239.03 40.75 211.3 48.32 203.74C55.88 196.17 72.27 225.17 72.27 225.17C72.27 225.17 42.01 191.13 50.84 186.09C59.66 181.04 88.66 218.86 88.66 218.86C89.67 218.36 97.73 214.33 98.74 213.82C98.74 213.82 77.32 160.99 92.44 159.61C99.37 158.98 115.13 210.04 115.13 210.04C116.77 214.2 129.88 247.48 131.52 251.64C131.52 251.64 137.82 266.77 135.3 275.59C133.77 280.99 132.5 286.46 131.52 291.98C121.69 289.97 92.19 283.91 82.35 281.9Z" id="bLpVzZbLi"></path><path d="M121.44 288.2C121.44 288.2 130.26 274.33 127.07 253.16C127.07 253.16 106.31 220.12 106.31 220.12C106.31 220.12 94.96 228.95 106.31 251.64C106.31 251.64 92.44 264.25 103.79 284.42" id="a1rTeHG73F"></path><path d="M126.48 288.2C126.48 288.2 135.3 274.33 132.11 253.16C132.11 253.16 111.35 220.12 111.35 220.12C111.35 220.12 100 228.95 111.35 251.64C111.35 251.64 97.48 264.25 108.83 284.42" id="b3Jlvf7jre"></path><path d="M91.81 218.23C87.65 211.8 85.34 208.23 84.88 207.52C84.88 207.52 52.1 202.48 55.88 213.82C55.88 213.82 74.79 220.12 74.79 220.12C75.38 220.71 78.32 223.65 83.61 228.95L91.81 218.23Z" id="b1pjP8zuoG"></path><path d="M97.48 217.6C91.43 209.28 88.07 204.66 87.4 203.74C87.4 203.74 54.62 198.69 58.4 210.04C58.4 210.04 77.31 216.34 77.31 216.34C77.9 216.93 80.84 219.87 86.14 225.17L97.48 217.6Z" id="eTmRcBMsK"></path><path d="M325.03 433.81L423.37 440.11L423.37 379.6L331.34 383.38L331.34 383.38L325.03 433.81Z" id="b2LyDOXsNy"></path><path d="M603.64 665.77C555.8 570.08 529.22 516.92 523.9 506.28C519.13 490.51 504.26 464.81 458.04 448.31C455.72 446.35 444.17 436.58 423.37 418.98L397.52 418.05C335.5 408.97 301.04 403.93 294.15 402.92C294.15 402.92 214.73 397.88 163.04 429.4C161.65 428.77 150.56 423.72 149.17 423.09C149.17 423.09 126.48 342.41 136.56 284.42C130.76 283.91 84.37 279.88 78.57 279.38C78.57 279.38 47.06 416.79 62.18 458.39C62.18 458.39 132.78 530.25 132.78 530.25C136.06 533.53 152.45 549.92 181.95 579.42L200.86 665.14L495.86 665.14L500.55 642.65L523.59 665.14L603.64 665.77Z" id="aoaECVahv"></path><path d="M218.62 379.99C208.12 376.88 200.94 367.66 200.94 357.19C200.94 331.09 200.94 122.26 200.94 96.16C200.94 84.48 209.82 74.52 221.94 72.62C306.23 59.4 395.53 60.42 488.93 73.11C501.27 74.79 510.43 84.87 510.43 96.73C510.43 122.72 510.43 330.65 510.43 356.64C510.43 367.33 502.95 376.69 492.15 379.61C399.27 404.69 307.98 406.46 218.62 379.99Z" id="a1NieRjr4G"></path><path d="M292.38 161.55C292.38 161.55 325.25 176.33 325.25 176.33C325.25 176.33 349.9 154.97 363.05 163.19C363.05 163.19 349.9 200.98 349.9 200.98C349.9 200.98 369.62 205.91 371.26 219.06C371.26 219.06 379.48 266.72 351.54 268.36C336.58 269.24 328.21 264.93 323.67 260.74C320.26 257.68 315.1 257.62 311.61 260.6C302.14 268.58 285.08 277.78 272.67 255.21C267.74 220.7 300.6 200.98 300.6 200.98C298.96 193.1 279.24 169.76 292.38 161.55Z" id="f127o7leR7"></path><path d="M466.57 164.83C466.57 164.83 433.71 179.62 433.71 179.62C433.71 179.62 409.06 158.26 395.91 166.48C395.91 166.48 409.06 204.27 409.06 204.27C409.06 204.27 389.34 209.2 387.7 222.35C387.7 222.35 379.48 270 407.41 271.64C422.38 272.53 430.74 268.22 435.28 264.03C438.7 260.97 443.86 260.9 447.35 263.89C456.82 271.87 473.88 281.07 486.29 258.5C491.22 223.99 458.36 204.27 458.36 204.27C460 196.38 479.72 173.05 466.57 164.83Z" id="bIZNggKnK"></path><path d="M371.23 312.86C371.23 312.86 458.22 308.61 472.27 293.12C472.27 293.12 490.48 295.52 486.12 307.25C486.12 307.25 476.15 338.99 443.41 342.24C421.85 344.37 375.25 344.88 345.93 344.98C323.14 345.16 300.6 340.15 280.04 330.32C279.63 330.12 279.31 329.96 279.23 329.92C266.5 323.64 258.45 310.68 258.44 296.48C258.44 290.96 259.42 287.97 263.02 286.88C269.5 284.92 274.67 289.6 274.67 289.6C274.67 289.6 305.49 314.42 371.23 312.86Z" id="k2hUYL0og0"></path><path d="M220.79 380.83C208.61 377.1 200.3 365.84 200.33 353.1C200.33 322.52 200.33 77.88 200.33 47.3C200.29 33.07 210.59 20.93 224.63 18.66C315.16 3.74 415.41 3.93 522.58 19.23C536.84 21.34 547.42 33.55 547.47 47.96C547.47 78.41 547.47 322 547.47 352.45C547.42 365.43 538.79 376.82 526.31 380.39C473.83 395.28 421.94 402.99 372.1 403.3C371.06 403.31 370 403.31 368.96 403.31C318.72 403.33 268.77 395.76 220.79 380.83ZM224.98 20.77C211.98 22.88 202.43 34.12 202.47 47.3C202.47 77.88 202.47 322.52 202.47 353.1C202.45 364.9 210.15 375.33 221.43 378.78C317.21 408.6 419.59 408.45 525.72 378.33C525.74 378.39 525.84 378.74 526.01 379.36C525.84 378.74 525.74 378.39 525.72 378.33C537.29 375.02 545.28 364.48 545.33 352.45C545.33 322 545.33 78.41 545.33 47.96C545.28 34.61 535.48 23.31 522.28 21.36C470.35 13.79 417.95 9.91 365.47 9.75C318.42 9.6 271.43 13.28 224.98 20.77Z" id="e1w8n4X065"></path><path d="M298.54 52.6C246.52 48.09 218.48 38.98 218.21 38.89C218.27 38.69 218.81 37.06 218.88 36.86C219.15 36.95 247.02 45.99 298.82 50.47C346.64 54.62 425.22 55.61 527.99 36.82C528.03 37.03 528.34 38.72 528.38 38.93C460.85 51.27 403.74 55.09 358.89 55.09C335.28 55.09 315.08 54.04 298.54 52.6Z" id="h5nc0Q2KDN"></path></defs><g><g><g><use xlink:href="#a8sriOZ3yG" opacity="1" fill="#6c63ff" fill-opacity="1"></use><g><use xlink:href="#a8sriOZ3yG" opacity="1" fill-opacity="0" stroke="#000000" stroke-width="1" stroke-opacity="0"></use></g></g><g><use xlink:href="#a13hSA9MVP" opacity="1" fill="#3f3d56" fill-opacity="1"></use><g><use xlink:href="#a13hSA9MVP" opacity="1" fill-opacity="0" stroke="#000000" stroke-width="1" stroke-opacity="0"></use></g></g><g><use xlink:href="#b8g3BLPTZ" opacity="1" fill="#6c63ff" fill-opacity="1"></use><g><use xlink:href="#b8g3BLPTZ" opacity="1" fill-opacity="0" stroke="#000000" stroke-width="1" stroke-opacity="0"></use></g></g><g><use xlink:href="#c2nL3nGzJ9" opacity="1" fill="#61c970" fill-opacity="1"></use><g><use xlink:href="#c2nL3nGzJ9" opacity="1" fill-opacity="0" stroke="#000000" stroke-width="1" stroke-opacity="0"></use></g></g><g><use xlink:href="#b4Od0nVEv" opacity="1" fill="#6c63ff" fill-opacity="1"></use><g><use xlink:href="#b4Od0nVEv" opacity="1" fill-opacity="0" stroke="#000000" stroke-width="1" stroke-opacity="0"></use></g></g><g><use xlink:href="#bFkGehu6w" opacity="1" fill="#3f3d56" fill-opacity="1"></use><g><use xlink:href="#bFkGehu6w" opacity="1" fill-opacity="0" stroke="#000000" stroke-width="1" stroke-opacity="0"></use></g></g><g><use xlink:href="#b2Q0IIX7p4" opacity="1" fill="#6c63ff" fill-opacity="1"></use><g><use xlink:href="#b2Q0IIX7p4" opacity="1" fill-opacity="0" stroke="#000000" stroke-width="1" stroke-opacity="0"></use></g></g><g><use xlink:href="#b2XANc6yB" opacity="1" fill="#3f3d56" fill-opacity="1"></use><g><use xlink:href="#b2XANc6yB" opacity="1" fill-opacity="0" stroke="#000000" stroke-width="1" stroke-opacity="0"></use></g></g><g><use xlink:href="#fBOhBHgzj" opacity="1" fill="#6c63ff" fill-opacity="1"></use><g><use xlink:href="#fBOhBHgzj" opacity="1" fill-opacity="0" stroke="#000000" stroke-width="1" stroke-opacity="0"></use></g></g><g><use xlink:href="#a193rhDjUw" opacity="1" fill="#3f3d56" fill-opacity="1"></use><g><use xlink:href="#a193rhDjUw" opacity="1" fill-opacity="0" stroke="#000000" stroke-width="1" stroke-opacity="0"></use></g></g><g><use xlink:href="#d1IOjyGHOH" opacity="1" fill="#6c63ff" fill-opacity="1"></use><g><use xlink:href="#d1IOjyGHOH" opacity="1" fill-opacity="0" stroke="#000000" stroke-width="1" stroke-opacity="0"></use></g></g><g><use xlink:href="#cyEsLoo7g" opacity="1" fill="#3f3d56" fill-opacity="1"></use><g><use xlink:href="#cyEsLoo7g" opacity="1" fill-opacity="0" stroke="#000000" stroke-width="1" stroke-opacity="0"></use></g></g><g><use xlink:href="#d4XTwZAZmy" opacity="1" fill="#6c63ff" fill-opacity="1"></use><g><use xlink:href="#d4XTwZAZmy" opacity="1" fill-opacity="0" stroke="#000000" stroke-width="1" stroke-opacity="0"></use></g></g><g><use xlink:href="#afPWnNvzI" opacity="1" fill="#3f3d56" fill-opacity="1"></use><g><use xlink:href="#afPWnNvzI" opacity="1" fill-opacity="0" stroke="#000000" stroke-width="1" stroke-opacity="0"></use></g></g><g><use xlink:href="#a1C9OyPazE" opacity="1" fill="#6c63ff" fill-opacity="1"></use><g><use xlink:href="#a1C9OyPazE" opacity="1" fill-opacity="0" stroke="#000000" stroke-width="1" stroke-opacity="0"></use></g></g><g><use xlink:href="#a2b4NBxFwU" opacity="1" fill="#6c63ff" fill-opacity="1"></use><g><use xlink:href="#a2b4NBxFwU" opacity="1" fill-opacity="0" stroke="#000000" stroke-width="1" stroke-opacity="0"></use></g></g><g><use xlink:href="#bJ4EClXTR" opacity="1" fill="#6c63ff" fill-opacity="1"></use><g><use xlink:href="#bJ4EClXTR" opacity="1" fill-opacity="0" stroke="#000000" stroke-width="1" stroke-opacity="0"></use></g></g><g><use xlink:href="#e45jLvAUYO" opacity="1" fill="#3f3d56" fill-opacity="1"></use><g><use xlink:href="#e45jLvAUYO" opacity="1" fill-opacity="0" stroke="#000000" stroke-width="1" stroke-opacity="0"></use></g></g><g><use xlink:href="#a2maJPoIm" opacity="1" fill="#6c63ff" fill-opacity="1"></use><g><use xlink:href="#a2maJPoIm" opacity="1" fill-opacity="0" stroke="#000000" stroke-width="1" stroke-opacity="0"></use></g></g><g><use xlink:href="#fbkqOlQyW" opacity="1" fill="#3f3d56" fill-opacity="1"></use><g><use xlink:href="#fbkqOlQyW" opacity="1" fill-opacity="0" stroke="#000000" stroke-width="1" stroke-opacity="0"></use></g></g><g><use xlink:href="#d16RORh9" opacity="1" fill="#6c63ff" fill-opacity="1"></use><g><use xlink:href="#d16RORh9" opacity="1" fill-opacity="0" stroke="#000000" stroke-width="1" stroke-opacity="0"></use></g></g><g><use xlink:href="#b3aMFQ3Cfw" opacity="1" fill="#3f3d56" fill-opacity="1"></use><g><use xlink:href="#b3aMFQ3Cfw" opacity="1" fill-opacity="0" stroke="#000000" stroke-width="1" stroke-opacity="0"></use></g></g><g><use xlink:href="#aYTPJZCvK" opacity="1" fill="#6c63ff" fill-opacity="1"></use><g><use xlink:href="#aYTPJZCvK" opacity="1" fill-opacity="0" stroke="#000000" stroke-width="1" stroke-opacity="0"></use></g></g><g><use xlink:href="#b1ssjButgr" opacity="1" fill="#3f3d56" fill-opacity="1"></use><g><use xlink:href="#b1ssjButgr" opacity="1" fill-opacity="0" stroke="#000000" stroke-width="1" stroke-opacity="0"></use></g></g><g><use xlink:href="#b5eTDRB6Lz" opacity="1" fill="#6c63ff" fill-opacity="1"></use><g><use xlink:href="#b5eTDRB6Lz" opacity="1" fill-opacity="0" stroke="#000000" stroke-width="1" stroke-opacity="0"></use></g></g><g><use xlink:href="#d10sFUt3GZ" opacity="1" fill="#6c63ff" fill-opacity="1"></use><g><use xlink:href="#d10sFUt3GZ" opacity="1" fill-opacity="0" stroke="#000000" stroke-width="1" stroke-opacity="0"></use></g></g><g><use xlink:href="#e41BUSMhC5" opacity="1" fill="#6c63ff" fill-opacity="1"></use><g><use xlink:href="#e41BUSMhC5" opacity="1" fill-opacity="0" stroke="#000000" stroke-width="1" stroke-opacity="0"></use></g></g><g><use xlink:href="#b1JwRuYIe" opacity="1" fill="#3f3d56" fill-opacity="1"></use><g><use xlink:href="#b1JwRuYIe" opacity="1" fill-opacity="0" stroke="#000000" stroke-width="1" stroke-opacity="0"></use></g></g><g><use xlink:href="#b1r8JNqnCD" opacity="1" fill="#6c63ff" fill-opacity="1"></use><g><use xlink:href="#b1r8JNqnCD" opacity="1" fill-opacity="0" stroke="#000000" stroke-width="1" stroke-opacity="0"></use></g></g><g><use xlink:href="#a2sVvqjUW0" opacity="1" fill="#6c63ff" fill-opacity="1"></use><g><use xlink:href="#a2sVvqjUW0" opacity="1" fill-opacity="0" stroke="#000000" stroke-width="1" stroke-opacity="0"></use></g></g><g><use xlink:href="#bLpVzZbLi" opacity="1" fill="#ffb9b9" fill-opacity="1"></use><g><use xlink:href="#bLpVzZbLi" opacity="1" fill-opacity="0" stroke="#000000" stroke-width="1" stroke-opacity="0"></use></g></g><g><use xlink:href="#a1rTeHG73F" opacity="1" fill="#000000" fill-opacity="1"></use><g><use xlink:href="#a1rTeHG73F" opacity="1" fill-opacity="0" stroke="#000000" stroke-width="1" stroke-opacity="0"></use></g></g><g><use xlink:href="#b3Jlvf7jre" opacity="1" fill="#ffb9b9" fill-opacity="1"></use><g><use xlink:href="#b3Jlvf7jre" opacity="1" fill-opacity="0" stroke="#000000" stroke-width="1" stroke-opacity="0"></use></g></g><g><use xlink:href="#b1pjP8zuoG" opacity="1" fill="#000000" fill-opacity="1"></use><g><use xlink:href="#b1pjP8zuoG" opacity="1" fill-opacity="0" stroke="#000000" stroke-width="1" stroke-opacity="0"></use></g></g><g><use xlink:href="#eTmRcBMsK" opacity="1" fill="#ffb9b9" fill-opacity="1"></use><g><use xlink:href="#eTmRcBMsK" opacity="1" fill-opacity="0" stroke="#000000" stroke-width="1" stroke-opacity="0"></use></g></g><g><use xlink:href="#b2LyDOXsNy" opacity="1" fill="#ffb9b9" fill-opacity="1"></use><g><use xlink:href="#b2LyDOXsNy" opacity="1" fill-opacity="0" stroke="#000000" stroke-width="1" stroke-opacity="0"></use></g></g><g><use xlink:href="#aoaECVahv" opacity="1" fill="#deb7b7" fill-opacity="1"></use><g><use xlink:href="#aoaECVahv" opacity="1" fill-opacity="0" stroke="#000000" stroke-width="1" stroke-opacity="0"></use></g></g><g><use xlink:href="#a1NieRjr4G" opacity="1" fill="#c4d6ea" fill-opacity="1"></use><g><use xlink:href="#a1NieRjr4G" opacity="1" fill-opacity="0" stroke="#000000" stroke-width="1" stroke-opacity="0"></use></g></g><g><use xlink:href="#f127o7leR7" opacity="1" fill="#3f3d56" fill-opacity="1"></use><g><use xlink:href="#f127o7leR7" opacity="1" fill-opacity="0" stroke="#000000" stroke-width="1" stroke-opacity="0"></use></g></g><g><use xlink:href="#bIZNggKnK" opacity="1" fill="#3f3d56" fill-opacity="1"></use><g><use xlink:href="#bIZNggKnK" opacity="1" fill-opacity="0" stroke="#000000" stroke-width="1" stroke-opacity="0"></use></g></g><g><use xlink:href="#k2hUYL0og0" opacity="1" fill="#3f3d56" fill-opacity="1"></use><g><use xlink:href="#k2hUYL0og0" opacity="1" fill-opacity="0" stroke="#000000" stroke-width="1" stroke-opacity="0"></use></g></g><g><use xlink:href="#e1w8n4X065" opacity="1" fill="#3f3d56" fill-opacity="1"></use><g><use xlink:href="#e1w8n4X065" opacity="1" fill-opacity="0" stroke="#000000" stroke-width="1" stroke-opacity="0"></use></g></g><g><use xlink:href="#h5nc0Q2KDN" opacity="1" fill="#3f3d56" fill-opacity="1"></use><g><use xlink:href="#h5nc0Q2KDN" opacity="1" fill-opacity="0" stroke="#000000" stroke-width="1" stroke-opacity="0"></use></g></g></g></g></svg>