<?xml version="1.0" encoding="UTF-8" standalone="no"?>
<!DOCTYPE svg PUBLIC "-//W3C//DTD SVG 1.1//EN" "http://www.w3.org/Graphics/SVG/1.1/DTD/svg11.dtd">
<svg version="1.1" xmlns="http://www.w3.org/2000/svg" xmlns:xlink="http://www.w3.org/1999/xlink" preserveAspectRatio="xMidYMid meet" viewBox="0 0 2048 1536" width="2048" height="1536"><defs><path d="M1472.77 352.65C1476.02 282.42 1528.44 227.3 1592.03 227.23C1595.67 227.23 1599.25 227.43 1602.81 227.78C1646.81 143.87 1744 115.29 1819.89 163.95C1843.69 179.21 1863.5 201.05 1877.37 227.32C1880.37 227.07 1883.38 226.9 1886.44 226.89C1950.03 226.82 2002.55 281.81 2005.94 352.03" id="bsy9hE4sn"></path><path d="M1497.66 342.45C1500.91 272.22 1553.33 217.11 1616.92 217.03C1620.56 217.03 1624.14 217.23 1627.69 217.58C1671.7 133.67 1768.89 105.09 1844.78 153.75C1868.58 169.01 1888.39 190.85 1902.26 217.12C1905.26 216.87 1908.27 216.7 1911.33 216.69C1974.92 216.62 2027.44 271.62 2030.83 341.84" id="b6DK9Lava"></path><path d="M140.98 1099.11C151.51 868.1 324.13 684.25 535.72 684.01C547.75 684 559.62 684.68 571.38 685.82C717.02 408.1 1038.7 313.52 1289.87 474.56C1368.65 525.07 1434.22 597.35 1480.14 684.3C1490.05 683.47 1500.03 682.9 1510.14 682.89C1721.73 682.65 1894.69 866.09 1905.66 1097.09" id="b27LcB9EKc"></path><path d="M223.36 1065.36C233.89 834.35 406.51 650.5 618.1 650.26C630.13 650.25 642 650.93 653.76 652.07C799.4 374.35 1121.08 279.76 1372.25 440.81C1451.03 491.32 1516.6 563.6 1562.52 650.55C1572.43 649.72 1582.41 649.15 1592.52 649.14C1804.11 648.9 1977.07 832.34 1988.04 1063.34" id="b3oaB1246c"></path><path d="M0.22 302.03C4.63 207.01 75.54 132.43 161.59 132.33C166.51 132.33 171.36 132.6 176.17 133.07C235.71 19.54 367.21 -19.13 469.89 46.71C502.1 67.36 528.9 96.9 547.67 132.45C551.73 132.11 555.81 131.88 559.94 131.87C645.99 131.78 717.04 206.19 721.63 301.2" id="g2Sg3b6XcE"></path><path d="M33.89 288.23C38.3 193.21 109.22 118.63 195.27 118.53C200.18 118.53 205.04 118.81 209.84 119.28C269.38 5.74 400.89 -32.93 503.57 32.91C535.77 53.56 562.58 83.11 581.35 118.65C585.4 118.31 589.48 118.08 593.61 118.08C679.66 117.98 750.72 192.39 755.31 287.4" id="b7Db7XaTza"></path><path d="M810.66 512.95C810.66 512.95 838.33 587.03 796.95 604.51C796.95 604.51 856.12 632.78 869.91 626.22C883.7 619.67 893.54 604.4 893.54 600.04C893.54 595.68 879.73 593.52 879.73 593.52C879.73 593.52 854.11 595.73 873.76 523.77C861.14 521.61 823.28 515.11 810.66 512.95Z" id="aIGimcMTk"></path><path d="M842.14 443.16C814.92 443.19 792.88 467.62 792.91 497.71C792.94 527.81 815.02 552.18 842.24 552.15C869.46 552.12 891.5 527.69 891.47 497.6C891.44 467.5 869.36 443.13 842.14 443.16Z" id="a1BQI9QhS8"></path><path d="M853.02 485.65C853.06 522.97 833.67 553.25 809.72 553.27C785.76 553.3 766.32 523.07 766.28 485.75C766.25 448.43 785.64 418.16 809.59 418.13C833.54 418.1 852.99 448.33 853.02 485.65Z" id="a39j456cBQ"></path><path d="M821.46 463.89C821.5 501.21 802.11 531.49 778.16 531.51C754.2 531.54 734.76 501.31 734.72 463.99C734.69 426.67 754.08 396.4 778.03 396.37C801.98 396.34 821.43 426.57 821.46 463.89Z" id="fiJQTRjRK"></path><path d="M756.36 414.92C756.38 433.58 746.69 448.72 734.71 448.73C722.73 448.75 713.01 433.63 712.99 414.97C712.98 396.31 722.67 381.18 734.65 381.16C746.62 381.15 756.34 396.26 756.36 414.92Z" id="dJfdYUaN5"></path><path d="M946.72 552.03C946.72 552.03 1074.69 381.86 1074.69 381.86C1074.69 381.86 1070.66 288.14 1090.4 316.45C1090.4 316.45 1094.42 401.46 1094.42 401.46C1089.35 411.18 1048.73 488.95 1043.65 498.67C1034.17 516.81 1022.32 533.3 1008.46 547.59C977.04 579.99 920.91 637.06 915.26 637.07C907.37 637.08 891.56 591.32 891.56 591.32C902.59 583.46 903.36 565.15 946.72 552.03Z" id="bvdYkNhck"></path><path d="M822.92 964.13C822.92 964.13 836.89 1149.39 832.96 1166.83C832.96 1166.83 817.24 1219.16 837.05 1321.59C837.05 1321.59 833.2 1417.5 833.2 1417.5C839.51 1420.54 890 1444.9 896.31 1447.94C896.31 1447.94 874.51 1330.26 878.43 1297.56C878.43 1297.56 880.3 1197.29 892.09 1151.51C892.09 1151.51 905.72 977.12 905.72 977.12C889.16 974.52 839.48 966.73 822.92 964.13Z" id="e7N9Y68gf"></path><path d="M822.92 964.13C822.92 964.13 836.89 1149.39 832.96 1166.83C832.96 1166.83 817.24 1219.16 837.05 1321.59C837.05 1321.59 833.2 1417.5 833.2 1417.5C839.51 1420.54 890 1444.9 896.31 1447.94C896.31 1447.94 874.51 1330.26 878.43 1297.56C878.43 1297.56 880.3 1197.29 892.09 1151.51C892.09 1151.51 905.72 977.12 905.72 977.12C889.16 974.52 839.48 966.73 822.92 964.13Z" id="a8Y0Ez6EtM"></path><path d="M852.9 1404.4C852.9 1404.4 839.08 1382.62 827.27 1404.43C815.47 1426.24 823.35 1428.41 831.25 1439.3C838.87 1449.81 899.82 1521.2 925.31 1518.26C926.2 1518.17 927.07 1517.96 927.91 1517.66C951.56 1508.91 918.02 1480.61 918.02 1480.61C918.02 1480.61 896.02 1443.26 895.88 1425.61C895.9 1424.81 895.32 1424.14 894.6 1424.12C894.32 1424.11 894.06 1424.2 893.83 1424.36C888.95 1428.12 876.4 1431.95 852.9 1404.4Z" id="a1SGMkRF5M"></path><path d="M775.58 942.39C775.58 942.39 742.15 1027.44 728.39 1071.05C721.17 1093.94 699.26 1101.23 680.08 1102.99C656.36 1105.06 633.33 1112.77 612.55 1125.58C584.97 1142.74 547.34 1162.21 523.46 1158.47C482.06 1151.98 515.64 1223.87 515.64 1223.87C515.64 1223.87 576.71 1182.39 633.87 1177.96C691.04 1173.53 752.14 1166.93 779.7 1127.66C807.26 1088.39 874.17 964.07 874.17 964.07C854.45 959.74 795.3 946.73 775.58 942.39Z" id="coEIhSk9R"></path><path d="M517.6 1212.97C517.6 1212.97 497.87 1197.73 513.63 1182.46C513.63 1182.46 535.29 1154.1 535.29 1154.1C535.29 1154.1 507.66 1121.43 497.82 1138.88C497.82 1138.88 444.68 1234.85 454.56 1258.82C454.56 1258.82 474.3 1289.31 486.11 1263.14C486.11 1263.14 527.72 1216.34 527.72 1216.34C525.7 1215.67 519.62 1213.64 517.6 1212.97Z" id="c4DCEyFXz"></path><path d="M816.23 602.85C799.73 598.84 782.84 607.58 775.04 624.15C767.42 641.06 766.45 665.58 793.09 696.06C793.09 696.06 840.46 754.86 816.83 778.86C793.2 802.87 929.18 763.48 929.18 763.48C929.18 763.48 911.42 750.42 927.16 711.17C939.52 680.33 938.51 662.96 928.89 649.54C923.09 641.19 919.14 631.45 917.36 621.11C914.65 606.52 907.98 588.24 891.56 586.96C891.56 586.96 874.29 585.87 873.07 590.79C871.85 595.71 887.63 600.05 883.69 602.23C870.2 602.36 877.15 616.73 816.23 602.85Z" id="ba0WY67wT"></path><path d="M810.39 639.34C809.19 628.82 804.64 603.33 788.99 607.74C769.36 613.26 747.73 667.78 747.73 667.78C747.73 667.78 730.04 728.83 704.43 744.12C678.82 759.41 607.93 837.96 607.93 837.96C607.93 837.96 548.81 855.46 570.51 872.87C592.21 890.29 619.78 861.92 619.78 861.92C626.75 857.29 682.49 820.22 689.46 815.58C713.83 799.34 734.77 777.51 750.89 751.58C765.39 728.3 783.56 701.4 795.08 692.5C802.05 687.33 807.28 679.76 809.95 670.95C812.05 663.73 812.63 656.07 811.66 648.55C811.25 645.48 810.74 642.43 810.39 639.34Z" id="b4eOBMicVp"></path><path d="M686.77 829.15C686.77 829.15 598.11 877.2 602.06 888.1C602.06 888.1 795.38 1027.38 905.76 1011.99C972.95 1002.62 1008.73 994.1 1026.45 988.87C1034.05 986.7 1040.75 981.72 1045.44 974.75C1048.06 970.9 1051.32 967.62 1055.04 965.09C1062.91 959.36 1065.09 947.66 1059.9 938.96C1059.8 938.79 1059.7 938.63 1059.6 938.47C1028.29 888.49 943.29 756.1 919.31 752.59C889.74 748.26 828.65 774.49 828.65 774.49C800.28 785.42 737.96 761.52 686.77 829.15Z" id="f2ce0MfN5h"></path><path d="M874.66 438.76C874.67 452.61 860.56 463.85 843.14 463.87C825.72 463.89 811.59 452.68 811.58 438.84C811.57 424.99 825.68 413.75 843.1 413.73C860.52 413.71 874.65 424.92 874.66 438.76Z" id="b2uffuPOw0"></path><path d="M1480.56 180.81C1484.12 170.03 1488.61 160.84 1493.64 160.83C1505.82 160.82 1450.96 103.65 1450.96 103.65C1450.96 103.65 1447.52 110.72 1441.84 120.25C1437.64 127.37 1433.09 134.23 1428.22 140.81C1421.73 149.89 1414.01 157.81 1405.34 164.3C1381 181.16 1472.37 214.72 1472.37 214.72C1474.37 203.22 1477.11 191.88 1480.56 180.81Z" id="k1VHo8eA6S"></path><path d="M1633.83 437.7C1633.83 437.7 1756.01 522.86 1718.4 536.92C1718.4 536.92 1618.37 450.84 1618.37 450.84C1621.46 448.21 1630.74 440.33 1633.83 437.7Z" id="chFS6n4yd"></path><path d="M1545.52 327.07C1545.52 327.07 1651.57 442.52 1651.57 442.52C1651.57 442.52 1633.27 482.61 1624.39 480.21C1615.52 477.8 1432.54 327.61 1413.29 315.45C1394.05 303.29 1423.29 228.03 1469.88 244.14C1485.01 260.73 1528.4 291.22 1545.52 327.07Z" id="c3Mxicyrw"></path><path d="M1545.52 327.07C1545.52 327.07 1651.57 442.52 1651.57 442.52C1651.57 442.52 1633.27 482.61 1624.39 480.21C1615.52 477.8 1432.54 327.61 1413.29 315.45C1394.05 303.29 1423.29 228.03 1469.88 244.14C1485.01 260.73 1528.4 291.22 1545.52 327.07Z" id="b7C8SIWbof"></path><path d="M1642.99 328.99C1642.99 328.99 1780.05 379.33 1746.58 402.94C1746.58 402.94 1630.82 345.84 1630.82 345.84C1633.26 342.47 1640.55 332.36 1642.99 328.99Z" id="daBYVX9u6"></path><path d="M1555.34 1019.25C1555.34 1019.25 1613.16 992.25 1607.11 1032.66C1607.11 1032.66 1573.69 1110.13 1573.71 1130.33C1573.71 1130.33 1522.01 1194.35 1512.87 1184.26C1512.87 1184.26 1528.04 1133.75 1521.93 1110.19C1521.93 1110.19 1509.68 1032.77 1509.68 1032.77C1518.81 1030.06 1546.21 1021.95 1555.34 1019.25Z" id="a7BfFcZTnh"></path><path d="M1555.34 1019.25C1555.34 1019.25 1613.16 992.25 1607.11 1032.66C1607.11 1032.66 1573.69 1110.13 1573.71 1130.33C1573.71 1130.33 1522.01 1194.35 1512.87 1184.26C1512.87 1184.26 1528.04 1133.75 1521.93 1110.19C1521.93 1110.19 1509.68 1032.77 1509.68 1032.77C1518.81 1030.06 1546.21 1021.95 1555.34 1019.25Z" id="c4D1oyYGSZ"></path><path d="M1537.1 1049.57C1537.1 1049.57 1594.92 1022.57 1588.87 1062.98C1588.87 1062.98 1555.45 1140.45 1555.47 1160.65C1555.47 1160.65 1503.77 1224.67 1494.63 1214.58C1494.63 1214.58 1509.8 1164.07 1503.69 1140.51C1503.69 1140.51 1491.44 1063.09 1491.44 1063.09C1500.57 1060.38 1527.97 1052.27 1537.1 1049.57Z" id="a1OQ4ppV3h"></path><path d="M1576.64 1009.12C1576.64 1009.12 1531.02 1063.04 1531.02 1063.04C1531.02 1063.04 1393.82 864.57 1402.9 803.96C1437.65 844.99 1582.72 992.28 1576.64 1009.12Z" id="b2jFDKBfT"></path><path d="M1576.64 1009.12C1576.64 1009.12 1531.02 1063.04 1531.02 1063.04C1531.02 1063.04 1393.82 864.57 1402.9 803.96C1437.65 844.99 1582.72 992.28 1576.64 1009.12Z" id="b4cgkLOeFu"></path><path d="M1393.59 612.07C1393.59 612.07 1402.9 803.96 1427.29 834.23C1427.29 834.23 1552.31 1039.45 1552.31 1039.45C1552.31 1039.45 1509.76 1116.93 1476.23 1076.57C1476.23 1076.57 1342.07 871.36 1342.07 871.36C1342.07 871.36 1250.54 672.84 1241.36 618.98C1232.17 565.13 1229.05 480.96 1253.39 464.1C1277.73 447.24 1359.95 463.98 1359.95 463.98C1366.68 493.6 1405.67 514.43 1393.59 612.07Z" id="g3I6yR8S6"></path><path d="M1435.15 130.9C1470.72 139.01 1467.19 140.59 1489.06 149.05C1489.18 148.65 1489.3 148.31 1489.42 147.97C1492.76 139.15 1494.88 150.73 1499.72 150.72C1511.9 150.71 1457.04 93.54 1457.04 93.54C1457.04 93.54 1454.97 97.78 1451.41 104.15C1450.35 106 1449.2 108.02 1447.92 110.15C1446.85 111.93 1445.7 113.82 1444.48 115.77C1442.62 118.8 1437.02 127.87 1435.15 130.9Z" id="d23FnRc7P"></path><path d="M1499.62 49.72C1467.67 49.76 1441.8 78.43 1441.83 113.76C1441.87 149.08 1467.79 177.69 1499.74 177.66C1531.69 177.62 1557.57 148.95 1557.53 113.62C1557.5 78.3 1531.57 49.69 1499.62 49.72Z" id="j4jSPkedry"></path><path d="M1499.78 214.69C1499.78 214.69 1387.36 470.68 1378.23 474.06C1378.23 474.06 1241.24 494.42 1241.24 494.42C1241.24 494.42 1247.13 278.95 1365.79 198.01C1365.79 198.01 1393.18 184.51 1393.16 160.95C1414.48 171.69 1481.47 170.94 1499.78 214.69Z" id="hI6UK7Zef"></path><path d="M1533.3 244.95C1533.3 244.95 1661.26 328.97 1661.26 328.97C1661.26 328.97 1652.16 372.74 1643.03 372.76C1633.89 372.77 1423.72 275.38 1402.4 268.67C1381.08 261.96 1393.18 181.14 1441.9 184.46C1460.18 196.55 1508.91 214.68 1533.3 244.95Z" id="d2NNL05r7v"></path><path d="M1479.87 91.83C1479.87 91.83 1510.31 78.33 1516.38 58.12C1522.45 37.91 1543.73 4.22 1562.05 58.07C1580.37 111.91 1613.92 182.57 1504.31 182.7C1504.31 182.7 1476.92 189.47 1476.89 162.53C1476.88 146.64 1483.63 131.66 1495.12 122.11C1495.12 122.11 1510.33 105.26 1479.87 91.83Z" id="epISG0qp"></path></defs><g><g><g><use xlink:href="#bsy9hE4sn" opacity="1" fill="#f2f2f2" fill-opacity="1"></use><g><use xlink:href="#bsy9hE4sn" opacity="1" fill-opacity="0" stroke="#000000" stroke-width="1" stroke-opacity="0"></use></g></g><g><use xlink:href="#b6DK9Lava" opacity="1" fill="#000000" fill-opacity="0"></use><g><use xlink:href="#b6DK9Lava" opacity="1" fill-opacity="0" stroke="#3f3d56" stroke-width="1" stroke-opacity="1"></use></g></g><g><use xlink:href="#b27LcB9EKc" opacity="1" fill="#f2f2f2" fill-opacity="1"></use><g><use xlink:href="#b27LcB9EKc" opacity="1" fill-opacity="0" stroke="#000000" stroke-width="1" stroke-opacity="0"></use></g></g><g><use xlink:href="#b3oaB1246c" opacity="1" fill="#000000" fill-opacity="0"></use><g><use xlink:href="#b3oaB1246c" opacity="1" fill-opacity="0" stroke="#3f3d56" stroke-width="1" stroke-opacity="1"></use></g></g><g><use xlink:href="#g2Sg3b6XcE" opacity="1" fill="#f2f2f2" fill-opacity="1"></use><g><use xlink:href="#g2Sg3b6XcE" opacity="1" fill-opacity="0" stroke="#000000" stroke-width="1" stroke-opacity="0"></use></g></g><g><use xlink:href="#b7Db7XaTza" opacity="1" fill="#000000" fill-opacity="0"></use><g><use xlink:href="#b7Db7XaTza" opacity="1" fill-opacity="0" stroke="#3f3d56" stroke-width="1" stroke-opacity="1"></use></g></g><g><use xlink:href="#aIGimcMTk" opacity="1" fill="#fbbebe" fill-opacity="1"></use><g><use xlink:href="#aIGimcMTk" opacity="1" fill-opacity="0" stroke="#000000" stroke-width="1" stroke-opacity="0"></use></g></g><g><use xlink:href="#a1BQI9QhS8" opacity="1" fill="#fbbebe" fill-opacity="1"></use><g><use xlink:href="#a1BQI9QhS8" opacity="1" fill-opacity="0" stroke="#000000" stroke-width="1" stroke-opacity="0"></use></g></g><g><use xlink:href="#a39j456cBQ" opacity="1" fill="#ff6584" fill-opacity="1"></use><g><use xlink:href="#a39j456cBQ" opacity="1" fill-opacity="0" stroke="#000000" stroke-width="1" stroke-opacity="0"></use></g></g><g><use xlink:href="#fiJQTRjRK" opacity="1" fill="#ff6584" fill-opacity="1"></use><g><use xlink:href="#fiJQTRjRK" opacity="1" fill-opacity="0" stroke="#000000" stroke-width="1" stroke-opacity="0"></use></g></g><g><use xlink:href="#dJfdYUaN5" opacity="1" fill="#ff6584" fill-opacity="1"></use><g><use xlink:href="#dJfdYUaN5" opacity="1" fill-opacity="0" stroke="#000000" stroke-width="1" stroke-opacity="0"></use></g></g><g><use xlink:href="#bvdYkNhck" opacity="1" fill="#fbbebe" fill-opacity="1"></use><g><use xlink:href="#bvdYkNhck" opacity="1" fill-opacity="0" stroke="#000000" stroke-width="1" stroke-opacity="0"></use></g></g><g><use xlink:href="#e7N9Y68gf" opacity="1" fill="#fbbebe" fill-opacity="1"></use><g><use xlink:href="#e7N9Y68gf" opacity="1" fill-opacity="0" stroke="#000000" stroke-width="1" stroke-opacity="0"></use></g></g><g><use xlink:href="#a8Y0Ez6EtM" opacity="1" fill="#000000" fill-opacity="1"></use><g><use xlink:href="#a8Y0Ez6EtM" opacity="1" fill-opacity="0" stroke="#000000" stroke-width="1" stroke-opacity="0"></use></g></g><g><use xlink:href="#a1SGMkRF5M" opacity="1" fill="#3f3d56" fill-opacity="1"></use><g><use xlink:href="#a1SGMkRF5M" opacity="1" fill-opacity="0" stroke="#000000" stroke-width="1" stroke-opacity="0"></use></g></g><g><use xlink:href="#coEIhSk9R" opacity="1" fill="#fbbebe" fill-opacity="1"></use><g><use xlink:href="#coEIhSk9R" opacity="1" fill-opacity="0" stroke="#000000" stroke-width="1" stroke-opacity="0"></use></g></g><g><use xlink:href="#c4DCEyFXz" opacity="1" fill="#3f3d56" fill-opacity="1"></use><g><use xlink:href="#c4DCEyFXz" opacity="1" fill-opacity="0" stroke="#000000" stroke-width="1" stroke-opacity="0"></use></g></g><g><use xlink:href="#ba0WY67wT" opacity="1" fill="#6c63ff" fill-opacity="1"></use><g><use xlink:href="#ba0WY67wT" opacity="1" fill-opacity="0" stroke="#000000" stroke-width="1" stroke-opacity="0"></use></g></g><g><use xlink:href="#b4eOBMicVp" opacity="1" fill="#fbbebe" fill-opacity="1"></use><g><use xlink:href="#b4eOBMicVp" opacity="1" fill-opacity="0" stroke="#000000" stroke-width="1" stroke-opacity="0"></use></g></g><g><use xlink:href="#f2ce0MfN5h" opacity="1" fill="#6c63ff" fill-opacity="1"></use><g><use xlink:href="#f2ce0MfN5h" opacity="1" fill-opacity="0" stroke="#000000" stroke-width="1" stroke-opacity="0"></use></g></g><g><use xlink:href="#b2uffuPOw0" opacity="1" fill="#ff6584" fill-opacity="1"></use><g><use xlink:href="#b2uffuPOw0" opacity="1" fill-opacity="0" stroke="#000000" stroke-width="1" stroke-opacity="0"></use></g></g><g><use xlink:href="#k1VHo8eA6S" opacity="1" fill="#a0616a" fill-opacity="1"></use><g><use xlink:href="#k1VHo8eA6S" opacity="1" fill-opacity="0" stroke="#000000" stroke-width="1" stroke-opacity="0"></use></g></g><g><use xlink:href="#chFS6n4yd" opacity="1" fill="#a0616a" fill-opacity="1"></use><g><use xlink:href="#chFS6n4yd" opacity="1" fill-opacity="0" stroke="#000000" stroke-width="1" stroke-opacity="0"></use></g></g><g><use xlink:href="#c3Mxicyrw" opacity="1" fill="#6c63ff" fill-opacity="1"></use><g><use xlink:href="#c3Mxicyrw" opacity="1" fill-opacity="0" stroke="#000000" stroke-width="1" stroke-opacity="0"></use></g></g><g><use xlink:href="#b7C8SIWbof" opacity="1" fill="#000000" fill-opacity="1"></use><g><use xlink:href="#b7C8SIWbof" opacity="1" fill-opacity="0" stroke="#000000" stroke-width="1" stroke-opacity="0"></use></g></g><g><use xlink:href="#daBYVX9u6" opacity="1" fill="#a0616a" fill-opacity="1"></use><g><use xlink:href="#daBYVX9u6" opacity="1" fill-opacity="0" stroke="#000000" stroke-width="1" stroke-opacity="0"></use></g></g><g><use xlink:href="#a7BfFcZTnh" opacity="1" fill="#55536e" fill-opacity="1"></use><g><use xlink:href="#a7BfFcZTnh" opacity="1" fill-opacity="0" stroke="#000000" stroke-width="1" stroke-opacity="0"></use></g></g><g><use xlink:href="#c4D1oyYGSZ" opacity="1" fill="#000000" fill-opacity="1"></use><g><use xlink:href="#c4D1oyYGSZ" opacity="1" fill-opacity="0" stroke="#000000" stroke-width="1" stroke-opacity="0"></use></g></g><g><use xlink:href="#a1OQ4ppV3h" opacity="1" fill="#55536e" fill-opacity="1"></use><g><use xlink:href="#a1OQ4ppV3h" opacity="1" fill-opacity="0" stroke="#000000" stroke-width="1" stroke-opacity="0"></use></g></g><g><use xlink:href="#b2jFDKBfT" opacity="1" fill="#3f3d56" fill-opacity="1"></use><g><use xlink:href="#b2jFDKBfT" opacity="1" fill-opacity="0" stroke="#000000" stroke-width="1" stroke-opacity="0"></use></g></g><g><use xlink:href="#b4cgkLOeFu" opacity="1" fill="#000000" fill-opacity="1"></use><g><use xlink:href="#b4cgkLOeFu" opacity="1" fill-opacity="0" stroke="#000000" stroke-width="1" stroke-opacity="0"></use></g></g><g><use xlink:href="#g3I6yR8S6" opacity="1" fill="#3f3d56" fill-opacity="1"></use><g><use xlink:href="#g3I6yR8S6" opacity="1" fill-opacity="0" stroke="#000000" stroke-width="1" stroke-opacity="0"></use></g></g><g><use xlink:href="#d23FnRc7P" opacity="1" fill="#000000" fill-opacity="1"></use><g><use xlink:href="#d23FnRc7P" opacity="1" fill-opacity="0" stroke="#000000" stroke-width="1" stroke-opacity="0"></use></g></g><g><use xlink:href="#j4jSPkedry" opacity="1" fill="#a0616a" fill-opacity="1"></use><g><use xlink:href="#j4jSPkedry" opacity="1" fill-opacity="0" stroke="#000000" stroke-width="1" stroke-opacity="0"></use></g></g><g><use xlink:href="#hI6UK7Zef" opacity="1" fill="#6c63ff" fill-opacity="1"></use><g><use xlink:href="#hI6UK7Zef" opacity="1" fill-opacity="0" stroke="#000000" stroke-width="1" stroke-opacity="0"></use></g></g><g><use xlink:href="#d2NNL05r7v" opacity="1" fill="#6c63ff" fill-opacity="1"></use><g><use xlink:href="#d2NNL05r7v" opacity="1" fill-opacity="0" stroke="#000000" stroke-width="1" stroke-opacity="0"></use></g></g><g><use xlink:href="#epISG0qp" opacity="1" fill="#3f3d56" fill-opacity="1"></use><g><use xlink:href="#epISG0qp" opacity="1" fill-opacity="0" stroke="#000000" stroke-width="1" stroke-opacity="0"></use></g></g></g></g></svg>